<?xml version="1.0" standalone="no"?>
<!DOCTYPE svg PUBLIC "-//W3C//DTD SVG 1.1//EN" "http://www.w3.org/Graphics/SVG/1.1/DTD/svg11.dtd" >
<svg xmlns="http://www.w3.org/2000/svg">
<metadata></metadata>
<defs>
<font id="workadaybold" horiz-adv-x="1218" >
<font-face units-per-em="2048" ascent="1638" descent="-410" />
<missing-glyph horiz-adv-x="458" />
<glyph unicode="&#xfb01;" horiz-adv-x="1507" d="M43 793v186q0 42 41 45h172q-2 127 4 213q11 119 102.5 208.5t237.5 92.5q57 1 108 -11.5t83 -30t55.5 -35t33.5 -29.5l11 -13q17 -24 -8 -59l-84 -115q-24 -31 -64 -6q-68 43 -118.5 26.5t-53.5 -75.5l-2 -166h225q43 0 43 -39l2 -186q-3 -39 -45 -39l-223 -2v-715 q0 -20 -12 -32.5t-31 -12.5h-217q-42 0 -45 39l-2 719l-174 -2q-39 -3 -39 39zM1005 1384q8 40 25.5 74t50.5 57t74 27q110 10 166.5 -36.5t64.5 -129.5q3 -37 -5 -72t-29 -67t-62.5 -51.5t-99.5 -20.5q-52 -1 -92 18t-60.5 51t-30.5 71t-2 79zM1036 983q0 19 10.5 31 t28.5 12h246q18 0 28.5 -12t10.5 -31l-2 -942q0 -19 -10 -30t-27 -11l-244 -2q-39 0 -39 41z" />
<glyph unicode="&#xfb02;" horiz-adv-x="1447" d="M43 793v186q0 42 41 45h172q-2 127 4 213q11 119 102.5 208.5t237.5 92.5q57 1 108 -11.5t83 -30t55.5 -35t33.5 -29.5l11 -13q17 -24 -8 -59l-84 -115q-24 -31 -64 -6q-68 43 -118.5 26.5t-53.5 -75.5l-2 -166h225q43 0 43 -39l2 -186q-3 -39 -45 -39l-223 -2v-715 q0 -20 -12 -32.5t-31 -12.5h-217q-42 0 -45 39l-2 719l-174 -2q-39 -3 -39 39zM1004 39q2 137 2 1460q0 37 38 37l248 2q35 0 35 -39q-1 -241 -0.5 -775.5t2.5 -680.5q0 -26 -9 -35.5t-32 -9.5h-246q-22 0 -30 8.5t-8 32.5z" />
<glyph horiz-adv-x="2048" />
<glyph horiz-adv-x="2048" />
<glyph horiz-adv-x="682" />
<glyph unicode="&#xd;" horiz-adv-x="458" />
<glyph unicode=" "  horiz-adv-x="458" />
<glyph unicode="&#x09;" horiz-adv-x="458" />
<glyph unicode="&#xa0;" horiz-adv-x="458" />
<glyph unicode="!" horiz-adv-x="591" d="M104 176q0 83 57.5 140t137.5 57q90 0 138.5 -45.5t56.5 -126.5q7 -98 -46.5 -154.5t-150.5 -58.5q-87 -2 -140 48t-53 140zM133 1393q0 43 37 43h258q33 0 33 -41q0 -69 -0.5 -152t-1 -162l-1 -158t-1 -145.5t-1 -117.5t-0.5 -81l-1 -30q0 -26 -9 -36.5t-34 -10.5h-228 q-23 0 -32 8.5t-9 32.5q0 35 -10 850z" />
<glyph unicode="&#x22;" horiz-adv-x="800" d="M102 1395q0 43 39 43l191 -2q40 0 37 -41q-3 -35 -25 -207t-41 -279q-5 -29 -12.5 -38t-30.5 -9l-96 -2q-23 0 -33.5 8.5t-11.5 32.5q-1 17 -9 242.5t-8 251.5zM463 1395q0 19 10.5 31t28.5 12l190 -2q40 0 35 -45q-2 -22 -28.5 -196t-45.5 -286q-5 -29 -12.5 -38 t-30.5 -9l-96 -2q-23 0 -33.5 8.5t-11.5 32.5q-1 15 -3.5 233.5t-2.5 260.5z" />
<glyph unicode="#" horiz-adv-x="1243" d="M59 520q0 19 12 30t31 11h136l45 320h-117q-45 0 -45 43l-2 159q0 19 12 32t31 13h157l39 267q6 39 39 39h181q14 0 21.5 -10.5t4.5 -28.5l-41 -267h240l39 267q3 18 14 28.5t25 10.5h180q14 0 21.5 -10.5t4.5 -28.5l-40 -267h92q45 0 45 -43v-155q0 -44 -41 -47h-133 l-49 -322h120q19 0 30 -11t11 -28v-166q0 -19 -11 -30t-30 -11h-159l-41 -272q-3 -19 -15 -31t-26 -12h-162q-18 0 -27 11.5t-6 29.5l39 272h-246l-41 -270q-3 -19 -15 -31t-26 -12h-161q-18 0 -27 11.5t-6 29.5l39 272h-95q-19 0 -32 12t-13 31zM475 561h246l45 320h-242z " />
<glyph unicode="$" horiz-adv-x="1026" d="M63 342q-8 43 29 51l207 39q38 5 47 -29q19 -68 37 -93q37 -50 113 -50q69 0 100.5 47.5t21.5 108.5q-7 48 -40.5 90t-80 75t-101.5 67t-108.5 73.5t-97.5 85.5t-71 112.5t-27 145.5q0 141 84 238t213 133l2 118q0 18 12.5 29.5t30.5 11.5h150q19 0 31 -11t12 -30 l-2 -116q105 -20 182.5 -81.5t107.5 -158.5q9 -33 -20 -47l-186 -100q-17 -7 -32.5 -2t-21.5 20q-37 92 -125 92q-40 0 -67 -24t-27 -64q0 -37 28 -72.5t73.5 -67t100 -66t109 -78.5t100 -95.5t73.5 -125.5t28 -160q0 -147 -87.5 -269t-242.5 -153v-115q0 -45 -38 -45h-158 q-19 0 -30 12t-11 31v121q-263 57 -318 352z" />
<glyph unicode="%" horiz-adv-x="1691" d="M74.5 1154.5q16.5 78.5 54 144t111 107.5t168.5 44q123 3 210.5 -71t111 -182.5t6.5 -218t-105 -188t-221 -81.5h-9q-89 0 -160 40.5t-108.5 105t-56 143t-2 157zM295 15.5q-4 15.5 8 37.5l791 1338q26 43 71 43h189q20 0 24.5 -18t-6.5 -38l-782 -1329 q-17 -28 -32.5 -38.5t-39.5 -10.5h-199q-20 0 -24 15.5zM327 1114.5q-5 -37.5 0.5 -75t28.5 -63.5t56 -26q41 0 64 39t23 86.5t-22.5 87.5t-62.5 41q-35 0 -58.5 -26t-28.5 -63.5zM949 353q1 69 23.5 135.5t62.5 118.5t104 85t143 35q69 2 129 -22t100 -66t69 -96.5 t37.5 -116t5 -123.5t-29 -118t-64 -100t-100 -70.5t-137.5 -28.5h-8q-82 0 -148 31.5t-106 83t-61 117.5t-20 135zM1206 389.5q-5 -37.5 1 -75t29.5 -63.5t57.5 -26q41 0 64 39t23 86.5t-22.5 87.5t-62.5 41q-36 0 -60.5 -26t-29.5 -63.5z" />
<glyph unicode="&#x26;" horiz-adv-x="1269" d="M70 385q0 81 21.5 148.5t61 118t83 86.5t100.5 69q-111 173 -111 285q0 98 43 175t111 117.5t151 60.5t166 2.5t151 -56t111 -114.5t43 -173q0 -71 -21 -129.5t-62 -104t-81 -77t-98 -66.5l160 -190q39 77 66 165q10 38 47 25q151 -53 180 -65q25 -11 16 -37 q-43 -153 -133 -303q105 -125 142 -162q16 -19 -5 -37q1 0 -39 -33l-80 -66l-40 -34q-26 -21 -49 2q-46 49 -109 125q-165 -137 -373 -137q-200 0 -326 114.5t-126 290.5zM393 391q0 -66 43.5 -107.5t112.5 -41.5q99 0 182 71l-229 271q-109 -76 -109 -193zM518 1090 q0 -92 62 -168q69 37 104 79t35 101q0 75 -50.5 105.5t-100.5 -3t-50 -114.5z" />
<glyph unicode="'" horiz-adv-x="440" d="M102 1395q0 43 39 43l191 -2q40 0 37 -41q-3 -35 -25 -207t-41 -279q-5 -29 -12.5 -38t-30.5 -9l-96 -2q-23 0 -33.5 8.5t-11.5 32.5q-1 17 -9 242.5t-8 251.5z" />
<glyph unicode="(" horiz-adv-x="825" d="M84 711q1 208 48 368t130.5 257.5t191 146.5t234.5 49q41 0 41 -35v-190q0 -24 -9 -33.5t-30 -11.5q-71 -5 -128 -37t-103 -96.5t-71 -174.5t-26 -258q-1 -273 81.5 -405.5t256.5 -151.5q23 -3 29 -12t6 -29v-200q0 -35 -37 -35q-297 0 -458.5 216t-155.5 632z" />
<glyph unicode=")" horiz-adv-x="825" d="M90 1296v201q0 35 37 35q297 0 458.5 -216t155.5 -632q-1 -208 -48 -368t-130.5 -257.5t-191 -146.5t-234.5 -49q-41 0 -41 35v190q0 24 9 33.5t30 11.5q57 4 104 24t89 63t71 106t46 158t18 214q1 273 -81.5 405.5t-256.5 151.5q-23 3 -29 12t-6 29z" />
<glyph unicode="*" horiz-adv-x="772" d="M90 989q-19 42 23 55l172 62l-170 57q-49 18 -25 64l43 86q10 20 28.5 22.5t35.5 -12.5l139 -125l-35 186q-3 23 6 37.5t29 14.5h104q46 0 37 -50l-37 -186l131 119q23 18 43.5 13.5t34.5 -29.5l37 -70q11 -18 5 -41t-32 -31l-170 -55q8 -3 77.5 -26t92.5 -31 q51 -17 25 -76q-3 -6 -17 -29.5t-20 -34.5q-29 -49 -76 -14l-133 117q36 -147 39 -181q5 -55 -53 -55h-72q-25 0 -40 13.5t-11 41.5l35 179l-137 -119q-17 -15 -37 -11t-29 23z" />
<glyph unicode="+" horiz-adv-x="1060" d="M94 635v186q0 19 12 32t31 13h252v279q0 19 12 32t31 13h207q19 0 32 -12t13 -31l-2 -281h242q19 0 32 -13t13 -30v-182q0 -19 -11.5 -33t-29.5 -14h-246v-305q0 -19 -13 -32t-30 -13l-203 -2q-19 0 -33 11.5t-14 29.5v309h-250q-19 0 -32 12t-13 31z" />
<glyph unicode="," horiz-adv-x="505" d="M26.5 -146q1.5 55 6.5 74q5 16 24 13q73 -11 124 4t75 47h-16q-90 -1 -137.5 49t-49.5 125q-1 84 46.5 141.5t121.5 65.5q100 10 167 -50t67 -180v-6q0 -201 -104.5 -303.5t-297.5 -75.5q-23 3 -26 23q-2 18 -0.5 73z" />
<glyph unicode="-" horiz-adv-x="1019" d="M92 475v209q0 43 39 43h756q19 0 30 -12t11 -31v-203q0 -45 -41 -45l-752 -2q-19 0 -31 11t-12 30z" />
<glyph unicode="." horiz-adv-x="575" d="M92 176q0 83 57.5 140t137.5 57q89 0 137.5 -45.5t56.5 -126.5q7 -98 -46 -154.5t-150 -58.5q-87 -2 -140 48t-53 140z" />
<glyph unicode="/" horiz-adv-x="1032" d="M-61.5 -247.5q-6.5 16.5 2.5 36.5l813 1704q21 43 65 43h199q20 0 27 -17.5t-3 -37.5l-823 -1690q-14 -29 -29.5 -42t-39.5 -13h-185q-20 0 -26.5 16.5z" />
<glyph unicode="0" horiz-adv-x="1273" d="M98 715q0 111 22 216.5t67 198.5t109 163.5t153.5 111.5t193.5 41q127 0 231 -58t171.5 -157.5t103 -232t33.5 -283.5q-2 -115 -22.5 -219t-63.5 -197.5t-105 -162t-153.5 -108.5t-202.5 -40q-128 0 -231.5 58.5t-169.5 159.5t-101 231t-35 278zM416.5 637 q3.5 -71 22 -136t45.5 -114.5t69 -78.5t92 -29q72 0 126 64t79 159.5t25.5 206.5t-23 206.5t-77.5 159.5t-128 64q-49 0 -90.5 -29.5t-68.5 -79.5t-46.5 -114.5t-24 -136t-1 -142.5z" />
<glyph unicode="1" horiz-adv-x="843" d="M47 1260q-11 45 23 57l356 117q6 2 16 2h215q33 0 33 -35v-1364q0 -39 -35 -39l-264 -2q-29 0 -29 37v1073l-196 -62q-50 -15 -60 23z" />
<glyph unicode="2" horiz-adv-x="1128" d="M91.5 1194q0.5 17 12.5 31q184 223 471 223q111 0 200.5 -38.5t144.5 -102t82 -147t20 -170.5t-49.5 -176t-118.5 -161l-393 -368l43 2l485 2q20 0 31.5 -12t11.5 -31l-4 -205q0 -20 -11.5 -32.5t-33.5 -12.5h-844q-22 0 -33.5 12.5t-11.5 32.5v238q0 47 31 75l496 490 q52 52 70.5 107.5t6 97t-48 68t-84.5 26.5q-43 0 -107.5 -34.5t-123.5 -98.5q-11 -12 -29 -12.5t-33 12.5l-168 155q-13 12 -12.5 29z" />
<glyph unicode="3" horiz-adv-x="1099" d="M52.5 172.5q-3.5 16.5 6.5 30.5l146 178q12 15 29 16t30 -10l70 -53q139 -107 254 -62q74 30 106 108q33 83 -5 154q-49 91 -187 92q-23 0 -49 -3l-111 -13q-28 -2 -35 21l-45 170q-8 31 14 53l314 289l-438 -2q-20 0 -31.5 12t-11.5 31v205q0 19 13 32t32 13h776 q39 0 39 -41l-4 -215q0 -28 -25 -56q-7 -8 -49 -45t-106 -93.5t-105 -94.5q92 -23 162 -75.5t109 -120.5t53 -148t2.5 -159.5t-51.5 -153.5t-101.5 -130.5t-153.5 -90.5t-202 -34q-124 0 -218.5 34.5t-209.5 133.5q-14 11 -17.5 27.5z" />
<glyph unicode="4" horiz-adv-x="1239" d="M55 506q-3 24 8 41l607 874q10 17 26 17l267 2q14 0 23 -10t9 -25l-2 -846h129q41 0 41 -43v-194q0 -19 -11 -31t-30 -12h-131v-238q0 -15 -11 -28.5t-24 -14.5l-256 -2q-32 0 -32 37l-2 246l-535 -3q-38 0 -45 43zM395 559h271v424z" />
<glyph unicode="5" horiz-adv-x="1116" d="M65 162.5q-3 16.5 7 30.5l118 186q10 17 29.5 20t32.5 -8l49 -37q55 -41 118.5 -62.5t112.5 -21.5q95 0 151 61.5t54 141.5q-2 93 -78 150t-215 30l-155 -35q-10 -2 -47 15t-88 43.5t-54 28.5q-12 6 -12 20l31 664q2 19 14.5 32t30.5 13h756q18 0 29.5 -13t11.5 -32 l-5 -207q0 -19 -11.5 -31t-31.5 -12h-483l-10 -224h6q58 15 117 15q120 0 216 -39.5t154.5 -106t89.5 -148.5t31 -171q0 -73 -20 -143t-61 -132.5t-99.5 -110t-140.5 -75t-178 -27.5q-138 0 -239.5 31t-213.5 127q-14 11 -17 27.5z" />
<glyph unicode="6" horiz-adv-x="1247" d="M90 664q0 165 33 298t89.5 222.5t134.5 149.5t165.5 86.5t185.5 25.5q202 0 344 -78q35 -18 21 -49l-100 -197q-7 -14 -23 -17.5t-29 3.5q-98 45 -202 45q-116 0 -195.5 -87t-89.5 -237q45 47 118 75t138 28q222 0 349.5 -131.5t127.5 -333.5q0 -75 -20.5 -146.5 t-63 -134t-101 -109t-140 -73.5t-175.5 -27q-97 0 -180 22.5t-155.5 74t-123 129.5t-79.5 195.5t-29 265.5zM442 449q6 -79 58.5 -135t138.5 -56q97 0 151 58.5t56 138.5q2 83 -54 146t-153 63q-68 0 -115.5 -32.5t-66.5 -80.5t-15 -102z" />
<glyph unicode="7" horiz-adv-x="1136" d="M104 1178v213q0 20 12 32.5t31 12.5h869q39 0 39 -39l-2 -197q0 -22 -6 -37l-482 -1130q-15 -35 -47 -35h-285q-19 0 -26 13.5t2 35.5l475 1090l-534 -2q-19 0 -32.5 12.5t-13.5 30.5z" />
<glyph unicode="8" horiz-adv-x="1206" d="M76 360.5q-9 75.5 5.5 148.5t62.5 139t122 112q-139 116 -139 284q-1 75 27 144t83 127t148 93.5t211 37.5q115 2 208.5 -32t151.5 -92t89.5 -131t31.5 -151q0 -181 -139 -286q80 -54 128.5 -133t60.5 -163.5t-15 -169.5t-88 -152t-169.5 -110.5t-248.5 -45.5h-10 q-112 0 -207 31t-157.5 84.5t-104.5 121.5t-51 143.5zM428 420q3 -71 49 -121.5t125 -50.5q74 0 120 42.5t54 104.5q11 78 -36 142.5t-138 68.5q-87 0 -132 -55.5t-42 -130.5zM451 1040q-7 -72 35.5 -127t123.5 -55q80 0 121.5 54t36.5 124q-5 62 -46 105t-112 43 t-112.5 -42t-46.5 -102z" />
<glyph unicode="9" horiz-adv-x="1230" d="M90 950q2 213 143.5 354.5t362.5 141.5q545 0 545 -674q0 -206 -44.5 -361t-124.5 -248.5t-184 -139.5t-231 -46q-93 0 -196.5 30t-182.5 81q-32 22 -20 49l98 199q7 14 23.5 19t29.5 -1q95 -59 183.5 -75.5t156.5 8t108.5 97.5t39.5 185q-112 -73 -236 -73 q-150 0 -258.5 62t-161 163.5t-51.5 228.5zM418 987q-8 -87 44 -155t150 -68q93 0 143 57t50 137q0 81 -52 142t-141 61q-87 0 -137 -50.5t-57 -123.5z" />
<glyph unicode=":" horiz-adv-x="542" d="M76 176q0 83 57 140t137 57q90 0 138.5 -45.5t56.5 -126.5q7 -98 -46.5 -154.5t-150.5 -58.5q-87 -2 -139.5 48t-52.5 140zM76 836q0 83 57 139.5t137 56.5q90 0 138.5 -45.5t56.5 -126.5q7 -98 -46.5 -154.5t-150.5 -58.5q-87 -2 -139.5 48t-52.5 141z" />
<glyph unicode=";" horiz-adv-x="569" d="M63 -146.5q2 54.5 7 74.5q5 16 24 13q73 -11 124 4t75 47h-17q-90 -1 -137 49t-49 125q-1 84 46.5 141.5t121.5 65.5q100 10 167 -50t67 -180v-6q0 -201 -104.5 -303.5t-297.5 -75.5q-24 3 -27 23q-2 18 0 72.5zM92 836q0 82 57.5 139t137.5 57q89 0 137.5 -45.5 t56.5 -126.5q7 -98 -46 -154.5t-150 -58.5q-87 -2 -140 48.5t-53 140.5z" />
<glyph unicode="&#x3c;" horiz-adv-x="1110" d="M117 631v186q0 51 41 72l751 371q19 10 36.5 1t17.5 -30v-191q0 -25 -9 -38.5t-32 -26.5l-533 -252l529 -240q45 -22 45 -75v-177q0 -25 -17 -34.5t-37 0.5l-745 362q-47 21 -47 72z" />
<glyph unicode="=" horiz-adv-x="1036" d="M100 408v192q0 19 12 32t31 13h748q19 0 32 -13t13 -30v-192q0 -19 -11 -31t-30 -12l-750 -2q-19 0 -32 12t-13 31zM100 862v189q0 19 14 34t33 15h744q19 0 32 -13t13 -30v-189q0 -19 -11.5 -33t-29.5 -14l-750 -2q-19 0 -32 12t-13 31z" />
<glyph unicode="&#x3e;" horiz-adv-x="1110" d="M147 231v177q0 53 46 75l526 240l-531 252q-23 13 -32 26.5t-9 38.5v191q0 21 17.5 30t36.5 -1l751 -371q41 -21 41 -72v-186q0 -51 -47 -72l-745 -362q-20 -10 -37 -0.5t-17 34.5z" />
<glyph unicode="?" horiz-adv-x="976" d="M57 1057q0 82 27 154.5t79 129.5t135.5 90t188.5 33q108 0 192.5 -29t134.5 -79t75.5 -111t25.5 -131q0 -73 -17.5 -132.5t-46 -99.5t-62.5 -74t-69 -63.5t-64.5 -60t-50 -72t-23.5 -90.5q0 -22 -23 -22l-283 -2q-22 0 -22 22q0 78 19 143t48.5 108.5t66 79.5t73 63 t66 52t48.5 54t19 61q0 43 -25 70t-69 27q-43 0 -75 -31t-42 -92q-3 -23 -23 -23l-282 2q-21 0 -21 23zM223 176q0 83 57.5 140t137.5 57q89 0 137.5 -45.5t56.5 -126.5q7 -98 -46 -154.5t-150 -58.5q-87 -2 -140 48t-53 140z" />
<glyph unicode="@" horiz-adv-x="1820" d="M70 561q1 249 111 447.5t314.5 313t467.5 114.5q150 0 281 -38t226.5 -104t164 -155t103 -192.5t34.5 -213.5q0 -274 -127 -435t-338 -161q-61 0 -127.5 24.5t-83.5 57.5q-2 -4 -6.5 -10t-22.5 -22t-40.5 -28t-62 -22t-85.5 -10q-74 0 -135.5 29t-100.5 77.5t-66 112 t-32.5 133.5t1 140t33.5 133.5t66 112t98 77.5t129 29q47 0 85 -9t59 -21.5t35.5 -25t18.5 -21.5l5 -9v59q0 14 10 24.5t23 10.5l176 2q14 0 24.5 -10t10.5 -25v-504q0 -39 39 -39q64 0 105.5 76t41.5 221q0 68 -17 133.5t-57.5 129.5t-100.5 112t-153.5 77.5t-209.5 29.5 q-132 0 -242.5 -41.5t-192 -120t-127.5 -200t-47 -273.5q-1 -128 38.5 -233.5t110 -177.5t169.5 -118t217.5 -55t253.5 12q10 2 21 -4.5t14 -19.5l32 -180q0 -14 -1 -21t-9.5 -16t-25.5 -13q-129 -21 -250 -22t-232 28t-206 77t-172.5 123.5t-132.5 168.5t-85 211.5 t-30 253.5zM809.5 495q8.5 -50 44 -85t86.5 -35q32 0 57.5 9.5t39 23t23 27t12.5 23.5l3 9v170q-6 8 -16 19.5t-41.5 31.5t-61.5 21q-59 2 -98.5 -31.5t-48 -83t0 -99.5z" />
<glyph unicode="A" d="M39 35l407 1370q9 29 37 29l250 2q30 0 39 -29l408 -1370q3 -9 3 -17q0 -20 -24 -20h-262q-24 0 -33 31l-55 217q-4 15 -10.5 20.5t-18.5 5.5h-342q-21 0 -28 -24l-60 -223q-8 -27 -35 -27h-256q-13 0 -19 10q-3 5 -3 12q0 6 2 13zM489 551q-1 -4 -1 -7q0 -9 8 -9h225 q9 0 9 10q0 3 -1 6l-115 465q0 2 -2 4q-1 1 -2 1h-2q-2 -1 -2 -5z" />
<glyph unicode="B" horiz-adv-x="1183" d="M143 1405q0 17 6.5 23t24.5 6q195 0 404 2h10q211 0 328 -83q120 -85 141 -266q2 -22 2 -44q0 -81 -32 -157q-41 -98 -128 -136q16 -4 38.5 -15t54 -37.5t57.5 -61.5t45 -92.5t20 -125.5v-10q0 -64 -12 -118q-12 -58 -47 -113.5t-91 -93.5t-148 -61.5t-212 -23.5h-426 q-33 0 -33 33zM459 293q0 -16 7.5 -21.5t25.5 -5.5h120q93 0 140 39t47 133t-53 133t-160 39h-99q-17 0 -22.5 -6t-5.5 -20v-291zM459 883q0 -27 28 -27h101q176 0 176 166q0 70 -47 111t-139 41h-95q-24 0 -24 -31v-260z" />
<glyph unicode="C" horiz-adv-x="1116" d="M74 709q0 176 51.5 319t138 232t195 136.5t227.5 47.5q82 0 151.5 -19t115.5 -50t72 -55.5t44 -49.5q20 -28 -4 -58l-127 -153q-8 -10 -23.5 -11t-29.5 11q-28 30 -84 54t-107 24q-120 0 -208.5 -114.5t-88.5 -322.5q0 -109 30.5 -192.5t79 -129.5t100.5 -68.5t104 -22.5 q54 0 103 21t81 50q28 28 55 -2l129 -143q14 -16 14 -27q0 -9 -8 -22q-16 -26 -46 -54.5t-77.5 -59t-117.5 -50.5t-148 -20q-134 0 -246 46t-196.5 134.5t-132 229t-47.5 319.5z" />
<glyph unicode="D" horiz-adv-x="1255" d="M145 1399q0 37 35 37h309q110 -1 207 -23.5t188 -76t155.5 -135t103.5 -208.5t39 -288q0 -154 -38 -276.5t-100.5 -202t-148 -132.5t-175.5 -75t-188 -23h-348q-37 0 -37 39zM465 1149l2 -866h82q106 0 177.5 57.5t102.5 151t31 217.5q0 199 -91.5 318.5t-229.5 121.5 h-74z" />
<glyph unicode="E" horiz-adv-x="1110" d="M143 33l2 1368q0 33 33 33h813q33 0 33 -31l-2 -223q0 -33 -33 -33h-491q-25 0 -25 -23v-235q0 -21 25 -21h407q31 0 31 -30l-2 -215q0 -14 -9 -23.5t-22 -9.5h-405q-27 0 -27 -25v-266q0 -18 25 -18h497q13 0 22 -8.5t9 -22.5l-2 -221q0 -31 -33 -31h-813q-33 0 -33 35z " />
<glyph unicode="F" horiz-adv-x="1087" d="M145 35v1358q0 41 39 41h815q17 0 24 -8t7 -27v-217q0 -35 -37 -35h-497q-23 0 -23 -27v-225q0 -17 5 -23t20 -6h313q41 0 41 -39v-204q0 -39 -41 -39h-313q-23 0 -23 -31v-514q0 -39 -37 -39h-258q-20 0 -27.5 7.5t-7.5 27.5z" />
<glyph unicode="G" horiz-adv-x="1282" d="M78 702q0 360 188 551t510 191q201 0 340 -86q26 -16 14 -43l-92 -215q-12 -28 -45 -10q-107 55 -235 55q-65 0 -127 -28t-112.5 -81t-81.5 -140.5t-31 -195.5q0 -208 93 -319t261 -111q54 0 94.5 17t40.5 32v185h-152q-18 0 -18 20l-2 224q0 22 20 22l412 2q29 0 29 -29 v-581q0 -27 -12.5 -42t-45.5 -36q-73 -45 -180 -74.5t-221 -29.5q-111 0 -204 25.5t-158.5 68t-116.5 102t-82 123t-51 136.5t-27.5 137.5t-7.5 129.5z" />
<glyph unicode="H" horiz-adv-x="1335" d="M143 1397q0 39 33 39h256q37 0 37 -41l2 -500q0 -20 4 -25.5t17 -5.5h354q11 0 14.5 6.5t3.5 22.5l-2 504q0 15 11 27t26 12h256q37 0 37 -37l-2 -1362q0 -37 -35 -37h-260q-33 0 -33 39l2 510q0 17 -4 25t-18 8l-348 -2q-23 0 -23 -31v-508q0 -41 -31 -41l-262 -2 q-33 0 -33 37z" />
<glyph unicode="I" horiz-adv-x="614" d="M143 31v1366q0 18 9.5 28.5t23.5 10.5h264q31 0 31 -37l-2 -1366q0 -35 -29 -35h-266q-31 0 -31 33z" />
<glyph unicode="J" horiz-adv-x="1089" d="M20 508q3 37 29 37h250q19 0 27 -9.5t8 -35.5q0 -211 147 -211q93 0 131.5 53t38.5 154v899q0 19 10.5 31t28.5 12h246q39 0 39 -43v-873q0 -284 -138 -416q-129 -123 -363 -123q-16 0 -32 1q-213 7 -322 148q-101 130 -101 341q0 17 1 35z" />
<glyph unicode="K" horiz-adv-x="1202" d="M139 1399q0 17 10 27t25 10h260q33 0 33 -35v-520l348 516q15 22 33 30.5t49 8.5h217q30 0 40 -29q3 -8 2 -17q0 -22 -17 -47l-389 -542l419 -735q13 -25 13 -40q0 -4 -1 -8q-5 -16 -28 -18l-274 -2q-48 0 -72 47l-266 508l-76 -104l-4 -416q0 -35 -33 -35h-254 q-15 0 -24 10t-9 27z" />
<glyph unicode="L" horiz-adv-x="1124" d="M147 1397q0 41 37 41l258 -2q31 0 31 -39l-2 -1084q0 -17 4 -21.5t21 -4.5h536q31 0 31 -33l-2 -217q0 -39 -37 -39h-838q-36 0 -36 39z" />
<glyph unicode="M" horiz-adv-x="1710" d="M141 29v1380q0 27 29 27h414q30 0 39 -31l245 -899q25 94 29 112l201 785q7 33 32 33h410q14 0 22.5 -9t8.5 -24l-4 -1370q0 -13 -10.5 -23t-24.5 -10h-256q-16 0 -25.5 10.5t-9.5 24.5l4 971q0 19 -4 18l-237 -995q-7 -29 -31 -29l-209 -2q-15 0 -22 6t-13 25l-272 993 l-3 -3l-1 -15l6 -971q0 -35 -29 -35h-258q-31 0 -31 31z" />
<glyph unicode="N" horiz-adv-x="1357" d="M141 33v1368q0 19 7.5 27t25.5 8h229q17 0 25.5 -5.5t17.5 -21.5l455 -795q-2 49 -2 72v717q0 33 29 33h258q31 0 31 -31v-1368q0 -21 -8.5 -29t-26.5 -8h-211q-14 0 -22.5 1.5t-18.5 9t-19 22.5l-460 770q2 -51 2 -74v-694q0 -35 -31 -35l-248 -2q-33 0 -33 35z" />
<glyph unicode="O" horiz-adv-x="1302" d="M98 721q1 113 21 216.5t63.5 196.5t107 161.5t157 108.5t206.5 40q144 0 252.5 -54.5t173.5 -152.5t97 -224t32 -280q0 -120 -15.5 -224t-55.5 -203.5t-102 -169t-161.5 -112t-228.5 -42.5q-113 0 -205.5 41.5t-155 112t-105.5 166.5q-43 94 -63 200q-19 100 -18 208v11z M410 709q0 -198 65 -317.5t182 -119.5q115 1 177.5 122t62.5 319q0 122 -26 216.5t-81 152t-133 57.5q-82 0 -139 -59.5t-82.5 -154t-25.5 -216.5z" />
<glyph unicode="P" horiz-adv-x="1224" d="M135 33l4 1362q0 37 33 39q271 2 565 2q134 0 238 -65t157 -169q50 -99 50 -214v-13q-2 -78 -18.5 -144t-43.5 -111t-61 -81t-71.5 -57.5t-75 -36.5t-71 -21t-59.5 -9.5t-42 -2.5h-15h-264v-483q0 -31 -29 -31l-266 2q-13 0 -22 9.5t-9 23.5zM461 784q60 -2 111 -2 q77 0 135 4q74 4 115 57t46 122v13q0 26 -6 50q-8 32 -26 61.5t-52.5 48.5t-81.5 21q-39 2 -99.5 2t-100.5 -1l-41 -1v-375z" />
<glyph unicode="Q" horiz-adv-x="1298" d="M96 727q0 150 35.5 279t103.5 227.5t174.5 154.5t239.5 56q181 0 307 -89t187 -247.5t61 -374.5q0 -643 -424 -735v-21q0 -42 32 -53.5t110 -11.5q47 0 47 -35v-156q0 -19 -13 -31t-32 -12q-34 -2 -65 -2q-78 0 -130 13q-55 14 -94.5 41t-58.5 50.5t-30.5 65.5 t-13.5 60.5t-3 60.5q-1 13 -1 19v10q-140 33 -238.5 137t-146 255t-47.5 339zM408 707q0 -199 65.5 -317t181.5 -118q77 1 130.5 58t78.5 153.5t25 225.5q0 198 -62.5 314t-171.5 116q-113 0 -180 -118t-67 -314z" />
<glyph unicode="R" horiz-adv-x="1228" d="M143 1399q0 37 31 37h477q70 0 131 -9t127.5 -36t114.5 -69.5t82 -116t41 -169.5q1 -20 1 -39q0 -135 -62 -239q-71 -118 -189 -156q23 -41 27 -49l260 -520q5 -9 5 -17q0 -5 -2 -8q-5 -10 -20 -10l-299 -2q-27 0 -39 27l-229 518q-6 12 -16 12h-109q-8 0 -8 -8l2 -514 q0 -33 -27 -33h-266q-17 0 -24 6.5t-7 26.5zM463 1157l2 -321q0 -19 22 -19h156q98 0 148.5 50.5t50.5 140.5q0 78 -54 127t-151 49h-150q-24 0 -24 -27z" />
<glyph unicode="S" horiz-adv-x="1085" d="M76 109l90 231q9 24 39 14q23 -8 61 -20.5t128.5 -33.5t148.5 -21q75 0 116 32.5t41 96.5q0 44 -40.5 82t-94.5 63t-137 66t-139 79q-103 70 -149 155.5t-46 197.5q0 71 28.5 140t81.5 127t137.5 94t186.5 36q72 0 142.5 -9t119 -22t87 -26t57.5 -22l18 -9q29 -16 17 -49 l-86 -209q-12 -27 -39 -15q-19 8 -49 19.5t-102 31t-118 19.5q-157 0 -157 -110q0 -40 33 -75.5t85.5 -64.5t116 -60t127 -70.5t116 -86t85.5 -115t33 -151.5q0 -197 -122.5 -320.5t-332.5 -123.5q-282 0 -465 83q-21 9 -21 29q0 8 3 17z" />
<glyph unicode="T" horiz-adv-x="1171" d="M57 1182v215q0 15 10 26t25 11h985q17 0 27 -10t10 -25l-2 -213q0 -17 -9.5 -27t-23.5 -10h-313q-16 0 -16 -25l-2 -1089q0 -35 -35 -35l-252 -2q-37 0 -37 37v1083q0 31 -21 31h-313q-14 0 -23.5 9t-9.5 24z" />
<glyph unicode="U" horiz-adv-x="1298" d="M119 1236v165q0 35 31 35h270q17 0 23 -7.5t6 -25.5q2 -664 8 -895q3 -111 54.5 -170t143.5 -59q94 0 144.5 56t50.5 167l-2 901q0 19 6 26t25 7l268 -2q27 -2 27 -33q1 -51 2 -138t2 -319v-221v-199q-2 -254 -140 -398t-385 -144q-245 0 -381.5 141.5t-144.5 390.5 q-4 115 -6 336.5t-2 385.5z" />
<glyph unicode="V" horiz-adv-x="1277" d="M43 1405q-2 7 -2 13q0 20 25 20h303q18 0 26 -6.5t13 -24.5l235 -991q3 -12 8 -12t8 12l213 991q6 29 33 29h309q23 0 23 -19q0 -5 -2 -12l-371 -1372q-9 -35 -43 -35l-348 -2q-28 0 -37 29z" />
<glyph unicode="W" horiz-adv-x="1671" d="M51 1397q-1 5 -1 9q0 28 30 28l272 2q18 0 27 -8.5t12 -30.5l105 -897l8 -64l186 959q5 21 15 30t34 9h191q41 0 49 -41l188 -957q5 41 7 64l106 903q3 31 31 31h276q21 0 29 -8q5 -6 5 -19q0 -6 -1 -14l-238 -1354q-8 -41 -49 -41h-276q-32 0 -41 35l-142 602l-40 184 l-39 -184l-140 -600q-9 -37 -43 -37h-274q-38 0 -45 39z" />
<glyph unicode="X" horiz-adv-x="1257" d="M48 8q-3 5 -3 12q0 8 4 17l322 708l-19 41l-286 609q-7 17 0 29t24 12l277 2q24 0 36.5 -10t20.5 -31l192 -467l17 -39l188 506q16 41 56 41l266 -2q24 0 30 -10.5t-4 -36.5l-278 -641l317 -711q5 -10 5 -18q0 -6 -3 -11q-6 -12 -24 -12h-266q-24 0 -34.5 7t-19.5 28 l-239 524l-17 -41l-188 -477q-17 -41 -62 -41h-288q-18 0 -24 12z" />
<glyph unicode="Y" horiz-adv-x="1261" d="M20 1423q6 11 23 11h299q18 0 27.5 -6.5t17.5 -24.5l227 -535l19 -41l18 41l230 539q12 27 39 27h297q19 0 25 -14q2 -4 2 -10q0 -11 -7 -26l-440 -841v-506q0 -22 -8 -30.5t-27 -8.5h-268q-31 0 -31 39v506l-443 852q-4 9 -4 16t4 12z" />
<glyph unicode="Z" d="M102 281q0 37 23 63l625 780h-592q-39 0 -39 37l-4 230q0 43 41 43l909 2q43 0 43 -45l-2 -263q0 -36 -25 -67l-604 -772l43 2l555 4q17 0 28 -11t11 -30l-2 -213q0 -45 -45 -45h-924q-39 0 -39 39z" />
<glyph unicode="[" horiz-adv-x="770" d="M131 -102l2 1599q0 15 10 27t23 12h467q18 0 29.5 -12.5t11.5 -30.5v-172q0 -41 -37 -41h-231l-3 -1161l232 2q18 0 29.5 -12.5t11.5 -30.5l2 -168q2 -19 -8.5 -33t-28.5 -14l-477 -2q-15 0 -24 10t-9 27z" />
<glyph unicode="\" horiz-adv-x="1050" d="M-13 1518.5q7 17.5 27 17.5h203q22 0 36 -9.5t26 -33.5l815 -1706q9 -20 2 -36.5t-27 -16.5l-182 2q-26 0 -42 10t-30 39l-825 1696q-10 20 -3 37.5z" />
<glyph unicode="]" horiz-adv-x="770" d="M92 1487q0 47 41 47l473 2q15 0 24 -10t9 -27l-2 -1603q0 -15 -9.5 -25t-23.5 -10h-469q-18 0 -28.5 10.5t-10.5 28.5v174q0 43 37 43h232l2 1161h-232q-41 0 -41 39z" />
<glyph unicode="^" horiz-adv-x="815" d="M109 1182l178 331q13 23 32 23h166q28 0 41 -23q7 -13 91.5 -166.5t89.5 -164.5q6 -12 2 -22.5t-17 -10.5h-129q-21 0 -33 12q-8 8 -59.5 79.5t-54.5 74.5q-10 9 -19 0q-1 -1 -25.5 -35.5t-52 -72.5t-34.5 -46q-12 -12 -33 -12h-127q-33 0 -16 33z" />
<glyph unicode="_" horiz-adv-x="1110" d="M86 -59q0 41 41 41h860q39 0 39 -41v-211q0 -39 -39 -39l-862 -2q-39 0 -39 35v217z" />
<glyph unicode="`" horiz-adv-x="673" d="M72 1337l20 160q5 28 24.5 37t47.5 -4q26 -13 216.5 -119.5t203.5 -114.5q29 -17 16 -57l-18 -70q-8 -32 -62 -18q-230 70 -416 131q-37 13 -32 55z" />
<glyph unicode="a" horiz-adv-x="1087" d="M74 264q0 116 68.5 199t189.5 112q70 16 153 30t131 20l48 6v21t-1 33t-9.5 33.5t-22.5 33t-42 22.5t-67 10q-35 0 -66.5 -4t-64 -15t-48 -16.5t-50.5 -21.5t-39 -18q-22 -9 -33.5 -5.5t-21.5 23.5l-70 150q-6 14 -6 26q0 23 24 37l12 6q55 28 92.5 44t120.5 34t173 18 q59 0 111.5 -7.5t113.5 -31t104.5 -62t73.5 -107t31 -158.5q2 -232 2.5 -390t-2.5 -241q-1 -30 -11 -38.5t-36 -8.5h-230q-20 0 -29 9.5t-9 33.5v74q-3 -5 -9 -14t-29.5 -31.5t-53.5 -40t-83.5 -31.5t-115.5 -14q-140 0 -219.5 77t-79.5 203zM379 297q-1 -35 23 -55 q21 -18 56 -17h7q15 0 30 2.5t29 7t26.5 9t25.5 12t21.5 13t20 13.5t16 11.5t12.5 10.5l9 7q9 9 9 17v96q0 14 -13 14h-4q-18 -2 -78 -14t-73 -14q-52 -9 -84.5 -40.5t-32.5 -72.5z" />
<glyph unicode="b" horiz-adv-x="1173" d="M121 1491q0 19 11.5 32t29.5 13l239 2q18 0 29.5 -13t11.5 -32l-2 -555q2 4 7 11t26.5 25t48.5 32t77 25t110 11q55 0 109 -17.5t108 -59.5t93.5 -104t62.5 -160q19 -80 19 -176q0 -21 -1 -42q-10 -241 -122 -369t-298 -128q-50 0 -94 14t-70 33.5t-45.5 39.5t-26.5 34 l-8 14l-2 -82q-1 -18 -14 -28.5t-31 -10.5h-225q-17 2 -29 15t-12 32zM442 387q0 -47 42.5 -87t107.5 -40q90 0 139 73t49 191q0 115 -48 184.5t-140 69.5q-59 0 -104.5 -46t-45.5 -107v-238z" />
<glyph unicode="c" horiz-adv-x="995" d="M72 514q0 102 35.5 197.5t99 170t159.5 118.5q94 43 204 42h5q226 -2 340 -145q22 -28 0 -53l-118 -129q-9 -11 -26 -12.5t-32 8.5q-1 1 -16.5 11t-22 14t-23 12.5t-28.5 12.5t-30 7.5t-35 3.5q-84 0 -144.5 -77t-60.5 -181q0 -116 56.5 -187t142.5 -71q103 0 192 82 q18 16 34 16t30 -16l102 -115q17 -19 17 -37q0 -16 -13 -32q-72 -83 -169.5 -126.5t-205.5 -43.5t-193.5 30t-140.5 80t-91.5 119.5t-52 143.5t-15.5 157z" />
<glyph unicode="d" horiz-adv-x="1167" d="M76 487q-1 21 -1 40q0 92 19 170q23 95 62.5 156t93 103.5t106 61t105.5 20.5h24q44 0 82 -6q49 -8 77.5 -19t49 -23t28.5 -20l7 -9v534q0 19 13 31t32 12l240 -2q18 0 27.5 -12.5t9.5 -30.5v-1446q0 -44 -35 -47l-221 -2q-47 0 -47 41v80q-3 -5 -8.5 -14t-26.5 -31.5 t-47.5 -40t-72.5 -31.5t-99 -14q-63 0 -118 13.5t-109 48.5t-93.5 89.5t-66 143.5t-31.5 204zM393 514q0 -110 50 -182t139 -72q65 0 107 40t42 87v260q0 47 -46 89t-103 42q-91 0 -140 -75t-49 -189z" />
<glyph unicode="e" horiz-adv-x="1085" d="M74 541q4 100 38 190.5t95.5 162.5t157.5 112q87 36 192 37q10 0 21 -1q83 -3 151.5 -27.5t113.5 -61t79 -87t52.5 -98t30.5 -102t15 -91.5t4 -73q-2 -26 -12 -38t-35 -13l-580 -9q0 -13 2.5 -30.5t15.5 -48t35 -54t65 -41.5t101 -18q17 0 33.5 1.5t29.5 3.5t27.5 7 t24 7.5t23 9.5t19.5 10t18.5 10.5t15.5 9.5t14.5 10t12.5 9q16 10 30 10q21 0 35 -23l90 -137q15 -27 -16 -55q-174 -139 -398 -139q-111 0 -200.5 33.5t-146 88.5t-93 128.5t-50.5 149.5q-12 63 -12 129q0 14 1 28zM403 641l314 6q0 6 -1 16t-10.5 35t-25 44t-49.5 33 q-28 12 -64 12q-8 0 -16 -1q-43 -3 -74 -19t-45 -36.5t-21 -41t-7 -34.5z" />
<glyph unicode="f" horiz-adv-x="880" d="M43 793v186q0 42 41 45h172v61q0 87 4 152q11 119 102.5 208.5t237.5 92.5h8q53 0 102 -12q53 -14 88 -34t61.5 -39.5t38.5 -33.5l13 -14q7 -10 7 -21q0 -17 -15 -38l-84 -115q-13 -17 -31 -17q-15 0 -32 11q-65 42 -113 42q-12 0 -23 -3q-54 -13 -57 -74l-2 -166h225 q43 0 43 -39l2 -186q-3 -39 -45 -39l-223 -2v-715q0 -20 -12 -32.5t-31 -12.5h-217q-42 0 -45 39l-2 719l-174 -2h-5q-34 0 -34 39z" />
<glyph unicode="g" horiz-adv-x="1024" d="M70 168q0 44 17.5 81t49 64t62 45t69.5 35q-87 35 -141.5 115.5t-54.5 175.5q0 159 120 257.5t320 98.5q49 0 92 -7t68.5 -17.5t44 -20.5t25.5 -17l8 -7q12 59 63 100q58 47 145 47q27 0 29 -20v-158q0 -17 -5.5 -24t-18.5 -7h-33q-17 0 -31 -7.5t-19 -15.5l-6 -7 q3 -3 7.5 -8t16.5 -23t21.5 -38.5t17 -54t7.5 -69.5q0 -157 -126 -258q-112 -88 -299 -88q-26 0 -54 2l-33 2q-57 -24 -57 -72q0 -23 15 -37t44 -14h221q183 0 274 -76q93 -78 93 -216q0 -149 -120 -234q-123 -86 -353 -86h-27q-448 0 -448 258q0 50 33 98.5t83 61.5 q-56 12 -88 49t-32 92zM352 -70q0 -88 172 -88h29q174 0 174 90q0 29 -23 48.5t-67 19.5h-227q-2 -1 -6 -2t-14 -6.5t-17.5 -12.5t-14 -20t-6.5 -29zM377 686q0 -49 34.5 -80t96.5 -31q64 0 98.5 31t34.5 82t-35 84t-96 33q-59 0 -96 -33.5t-37 -85.5z" />
<glyph unicode="h" horiz-adv-x="1171" d="M119 1495q0 19 12 31t31 12l235 -2q19 0 32 -13t13 -32v-596q4 6 12 15.5t36 34.5t60.5 44.5t85 35t109.5 15.5q156 0 238 -83t82 -248l-2 -666q0 -43 -37 -43l-238 -2q-40 0 -40 43v514q0 99 -30 146t-93 49h-3q-86 0 -133 -49q-47 -50 -47 -146v-512q0 -45 -36 -45 h-244q-41 0 -41 43z" />
<glyph unicode="i" horiz-adv-x="591" d="M102 1384q8 40 25.5 74t50.5 57t74 27q19 2 37 2q83 0 129 -38q56 -46 65 -130q1 -10 0 -20q0 -27 -5 -52q-8 -35 -29 -67t-62.5 -51.5t-99.5 -20.5h-5q-49 0 -87 18q-40 19 -60.5 51t-30.5 71q-6 22 -6 44q0 17 4 35zM133 983q0 19 10.5 31t28.5 12h246q18 0 28.5 -12 t10.5 -31l-2 -942q0 -19 -10 -30t-27 -11l-244 -2q-39 0 -39 41z" />
<glyph unicode="j" horiz-adv-x="573" d="M-20 -168q0 32 43 39q67 6 87.5 22t22.5 62v1028q0 19 10.5 31t28.5 12h240q37 0 37 -41q2 -358 2 -1063q0 -26 -0.5 -42t-4.5 -45.5t-12 -50t-23 -47.5t-37 -46t-55.5 -37t-76.5 -29q-32 -8 -85.5 -12.5t-91.5 -4.5l-38 -1q-41 0 -41 43zM91 1342v6q0 44 16 84 q17 43 52.5 73t82.5 35q19 2 36 2q82 0 128 -40q55 -49 63 -134q1 -8 1 -17q0 -74 -41 -125q-45 -58 -155 -61h-5q-57 0 -98 25q-43 25 -61 65t-19 87z" />
<glyph unicode="k" horiz-adv-x="1067" d="M119 1497q0 18 11.5 29.5t29.5 11.5l237 -2q19 0 31 -11t12 -30l4 -856q13 23 25 43l186 303q23 39 62 39l270 2q18 0 24 -11t-3 -26l-275 -414q17 -24 29 -47l282 -493q6 -9 6 -17q0 -5 -2 -9q-6 -11 -24 -11l-274 2q-40 0 -60 39l-221 397l-25 43l2 -438q0 -19 -12 -30 t-31 -11h-235q-36 0 -39 41q-3 110 -6.5 713.5t-3.5 742.5z" />
<glyph unicode="l" horiz-adv-x="559" d="M117 39q2 137 2 1460q0 37 39 37l248 2q34 0 34 -39q-1 -161 -1 -452q1 -145 1 -323q0 -534 2 -681q0 -26 -9 -35.5t-32 -9.5h-245q-22 0 -30.5 8.5t-8.5 32.5z" />
<glyph unicode="m" horiz-adv-x="1638" d="M119 981q0 19 12 31t29 12h237q19 0 32 -12t13 -31v-94q5 6 14 16.5t41 37t67 46.5t90.5 36.5t113.5 16.5q49 0 88.5 -14t61 -34t36 -40.5t18.5 -34.5l5 -14q7 6 19 15.5t50.5 34t78 43t96.5 32.5q47 11 91 11q10 0 19 -1q100 -6 149.5 -71.5t51.5 -171.5l-2 -752 q0 -19 -13 -32t-32 -13h-223q-19 0 -31.5 13t-11.5 32v137q0 386 -5 475q-6 95 -88 95q-47 0 -92 -36.5t-43 -70.5l-2 -600q-2 -19 -14.5 -31.5t-30.5 -11.5l-225 2q-19 0 -32 13t-13 32v197q0 272 -4 401q-1 54 -26.5 79.5t-63.5 25.5q-48 -2 -92 -36.5t-44 -74.5v-596 q0 -19 -11 -31t-30 -12h-243q-18 0 -28.5 12t-10.5 31z" />
<glyph unicode="n" horiz-adv-x="1161" d="M119 979q0 19 12 32t31 13l233 2q19 0 32.5 -12t14.5 -31v-96q5 6 14 16.5t39.5 37t64 46.5t86 36.5t106.5 16.5q137 0 214 -68.5t83 -203.5v-725q0 -20 -11 -31.5t-30 -11.5l-232 -2q-43 0 -43 43v549q1 78 -23 120q-23 41 -82 40h-3q-71 0 -126 -44.5t-55 -113.5v-549 q0 -45 -45 -45h-231q-19 0 -31 11.5t-12 31.5z" />
<glyph unicode="o" horiz-adv-x="1107" d="M72 520q0 100 28 189.5t84 163.5t150.5 119t216.5 48h15q112 0 200 -41q94 -44 151 -120t86.5 -169.5t30.5 -197.5v-9q0 -70 -15 -137q-16 -72 -53.5 -141.5t-92 -122t-138.5 -84.5t-186 -32q-95 0 -175 30t-135 81t-93 120t-56 145.5t-18 157.5zM370 456 q9 -56 29.5 -102t59.5 -75t88 -29q59 0 103 38t64 96q21 56 22 124v7q0 65 -18 119q-19 58 -61.5 96.5t-101.5 39.5h-4q-51 0 -89 -28q-40 -28 -61 -74q-21 -44 -31 -100q-5 -28 -4 -58q0 -27 4 -54z" />
<glyph unicode="p" horiz-adv-x="1157" d="M119 981q0 18 12.5 31.5t30.5 13.5h235q18 0 28.5 -10.5t10.5 -28.5v-67q4 5 11 12.5t31.5 27.5t52 35.5t71 28t88.5 12.5q72 0 140.5 -32t126.5 -92t93 -159t35 -221q0 -252 -113.5 -391.5t-301.5 -148.5q-13 -1 -26 -1q-34 0 -64 6q-42 8 -67 21t-43 26.5t-25 23.5 l-7 10q2 -50 2 -60v-362q0 -19 -13 -32t-32 -13h-231q-18 0 -29.5 13t-11.5 32zM444 336q0 -31 52 -60q41 -23 86 -23q11 0 22 1q85 12 131.5 85t46.5 185q0 115 -47 177.5t-133 62.5q-72 0 -127 -51q-13 -11 -22 -31.5t-9 -34.5v-311z" />
<glyph unicode="q" horiz-adv-x="1157" d="M72 532q0 122 35 221t93 159t126.5 92t140.5 32q45 0 88 -12t71.5 -29t50.5 -34t32 -29l10 -12q-1 28 -1 44.5t1 22.5q0 18 10.5 28.5t28.5 10.5h241q18 0 28.5 -13.5t10.5 -31.5l-4 -1325q0 -19 -13 -32t-32 -13h-233q-18 0 -29.5 13t-11.5 32v362l2 56q-2 -4 -7 -10 t-24 -21.5t-42.5 -26.5t-65.5 -19q-31 -6 -65 -6q-13 0 -26 1q-188 9 -301.5 148.5t-113.5 391.5zM375 524q0 -112 46.5 -185t131.5 -85q11 -1 22 -1q46 0 89 23q55 29 55 60v311q0 14 -9 34.5t-22 31.5q-55 51 -133 51q-86 0 -133 -62.5t-47 -177.5z" />
<glyph unicode="r" horiz-adv-x="821" d="M119 979q0 20 11.5 33.5t31.5 13.5h239q45 0 45 -41v-127q3 11 40 48.5t105.5 81t133.5 54.5q12 2 21 2q32 0 32 -24v-268q0 -29 -30 -29h-37q-62 -1 -122 -19.5t-101.5 -53.5t-41.5 -77v-530q0 -45 -45 -45h-235q-19 0 -32 12t-13 33z" />
<glyph unicode="s" horiz-adv-x="944" d="M68 669q-3 18 -3 37q0 44 14 89q20 64 64 116t119.5 87.5t169.5 41.5q21 1 43 1q71 -1 147 -13q98 -16 152 -36l53 -19q22 -10 15 -31l-88 -201q-8 -16 -31 -8q-156 51 -262 51q-33 0 -54 -12t-25.5 -28.5t7 -34t37.5 -27.5q24 -9 95.5 -27t137 -41t107.5 -53 q54 -38 85 -96.5t37 -122.5q1 -11 0 -22q0 -52 -20 -106q-25 -65 -74 -116t-135.5 -83.5t-197.5 -32.5q-108 0 -214 29.5t-163 62.5q-19 11 -12 28l88 213q8 20 33 9l92 -37q133 -49 208 -49q62 0 85 33q7 9 10 22q6 24 -14 41.5t-61 30t-87.5 23.5t-105 29.5t-101.5 41.5 q-65 35 -104 91.5t-47 118.5z" />
<glyph unicode="t" horiz-adv-x="849" d="M37 977q0 47 41 47h137v141q0 43 39 56l221 71q6 2 12 2q10 0 17 -6q12 -9 12 -26l-2 -238h227q19 0 31 -10.5t12 -28.5v-180q0 -19 -12 -31t-33 -12l-227 -2v-45q0 -307 2 -373q3 -80 90 -80q24 0 51 6t43 12l15 7q19 8 32.5 1.5t16.5 -24.5l31 -176q2 -11 2 -20 q0 -26 -15 -35q-3 -2 -9 -5.5t-28 -12.5t-48.5 -15.5t-71.5 -12t-95 -5.5q-94 0 -158.5 30.5t-98 87t-47 120t-13.5 145.5v346v45h-127q-18 0 -31.5 11t-13.5 30z" />
<glyph unicode="u" horiz-adv-x="1138" d="M110 838l1 141q0 19 13 32t32 13h217q43 0 43 -43q2 -514 2 -571q0 -154 102 -154h3q67 0 127 48q62 48 63 93l2 582q0 19 12 32t33 13h215q19 0 31 -11t12 -30v-944q0 -39 -43 -39l-211 -2q-37 0 -37 43v82q-4 -7 -12 -17.5t-37.5 -36.5t-64.5 -45q-35 -20 -93 -32 q-39 -8 -82 -8q-20 0 -41 2q-73 7 -129.5 41t-87.5 82.5t-47 98.5t-18 99q-3 55 -4 223t-1 308z" />
<glyph unicode="v" horiz-adv-x="1081" d="M43 987q-3 9 -3 16t4 13q6 12 26 12h270q46 0 57 -43l131 -551l19 -76l129 625q4 22 19 33.5t34 11.5h283q27 0 27 -22q0 -8 -3 -19l-315 -948q-13 -43 -55 -43h-242q-43 0 -57 41z" />
<glyph unicode="w" horiz-adv-x="1503" d="M39 985q-2 8 -2 14q1 9 5 16q8 11 28 11h258q37 0 45 -35l121 -555l14 -74l119 633q6 29 37 29h200q34 0 41 -41l117 -623l10 68l96 567q5 31 48 31h262q28 0 28 -25q0 -7 -2 -16l-268 -950q-6 -21 -19.5 -31t-41.5 -10h-213q-44 0 -54 43l-102 450l-12 -55l-88 -395 q-11 -43 -60 -43h-217q-20 0 -32 8.5t-21 32.5z" />
<glyph unicode="x" horiz-adv-x="1019" d="M42 11q-2 4 -2 9q0 9 7 21l234 491l-228 451q-10 22 -4 33.5t27 11.5h262q34 0 45 -35q37 -108 69 -186.5t45 -103.5l13 -25l123 315q8 20 16.5 27.5t26.5 7.5h268q21 0 27 -13t-4 -30l-224 -455l234 -491q6 -13 6 -22q0 -19 -29 -19l-260 2q-35 0 -49 37l-131 344 q-10 -48 -129 -352q-6 -16 -16 -22.5t-29 -6.5h-272q-20 0 -26 11z" />
<glyph unicode="y" horiz-adv-x="1097" d="M37 985q-5 12 -5 21q0 20 29 20h287q20 0 29 -8.5t18 -32.5l160 -446l18 -54l162 500q12 41 51 41h258q19 0 26 -12q3 -7 3 -15q0 -9 -4 -20q-162 -418 -246 -629l-282 -700q-9 -24 -18.5 -31.5t-30.5 -7.5h-248q-30 0 -30 22q0 9 5 21l193 469q10 25 2 43z" />
<glyph unicode="z" horiz-adv-x="937" d="M80 39l2 180q0 36 24 60l398 444l28 35l-405 -2q-39 0 -39 39l2 184q0 45 41 45l686 2q41 0 41 -45l-2 -211q0 -43 -29 -76l-389 -436q22 2 47 2l338 2q39 0 39 -41v-180q0 -43 -47 -43h-696q-21 0 -30 9.5t-9 31.5z" />
<glyph unicode="{" horiz-adv-x="954" d="M41 606v187q0 26 8 42t33 29l233 115l2 518q0 15 10 27t23 12h467q41 0 41 -43v-166q0 -47 -41 -47h-227v-426q0 -26 -27 -39l-248 -117l248 -112q27 -14 27 -39l-2 -428h231q18 0 29.5 -11.5t11.5 -29.5l2 -174q0 -41 -41 -41l-473 -2q-15 0 -24 10t-9 27v526l-227 111 q-47 21 -47 71z" />
<glyph unicode="|" horiz-adv-x="606" d="M160 -104l2 1601q0 18 9.5 28.5t23.5 10.5h219q14 0 23 -10t9 -25l-6 -1605q0 -16 -9 -26.5t-25 -10.5h-213q-33 0 -33 37z" />
<glyph unicode="}" horiz-adv-x="954" d="M92 -98l2 176q0 18 11.5 29.5t29.5 11.5h232l-2 428q0 26 26 39l248 112l-248 117q-26 13 -26 39v426h-230q-39 0 -39 41v172q0 18 11 30.5t32 12.5h465q14 0 23.5 -10t9.5 -25l2 -522l233 -115q25 -13 33 -29t8 -42v-187q0 -27 -10 -43t-37 -28l-227 -111v-526 q0 -37 -33 -37l-475 2q-39 0 -39 39z" />
<glyph unicode="~" horiz-adv-x="1030" d="M53 448q-6 21 4 64q30 117 108.5 177.5t190.5 60.5q63 0 117 -22t96 -44t74 -22q65 0 90 63q21 59 72 43l127 -43q34 -12 42.5 -28.5t2.5 -53.5q-25 -113 -109.5 -180.5t-212.5 -67.5q-50 0 -94.5 13t-70.5 29t-54.5 29t-50.5 13q-59 0 -90 -55q-11 -20 -17.5 -28.5 t-18 -13.5t-28.5 -1q-7 2 -145 39q-27 7 -33 28z" />
<glyph unicode="&#xa1;" horiz-adv-x="591" d="M100 1251q0 83 57.5 140t137.5 57q89 0 137.5 -45.5t56.5 -126.5q7 -98 -46 -154.5t-150 -58.5q-87 -2 -140 48t-53 140zM135 37q0 69 0.5 152.5t1 162.5t1 158.5t1 146.5t1 118.5t0.5 81.5l1 30q0 26 9 36.5t32 10.5h230q23 0 32 -8.5t9 -32.5q0 -41 10 -856 q0 -37 -35 -37h-256q-37 0 -37 37z" />
<glyph unicode="&#xa2;" horiz-adv-x="995" d="M74 698q0 178 95.5 323.5t254.5 190.5l-2 285q0 18 9.5 28.5t23.5 10.5h219q33 0 33 -39l-2 -291q113 -36 184 -129q22 -28 0 -53l-125 -137q-22 -25 -55 -2q-1 0 -9.5 6t-10.5 7t-10.5 6t-12.5 7t-12.5 6t-14.5 5.5t-15.5 4.5t-17.5 4t-18 2t-21 1q-80 0 -133 -73 t-53 -171q0 -112 58 -181t143 -63q49 4 97 29t79 55q37 37 63 7l113 -134q29 -32 8 -61q-31 -42 -98 -89t-150 -69v-288q0 -35 -30 -35h-211q-33 0 -33 35v290q-89 25 -157.5 77.5t-108.5 122.5t-60 148.5t-20 163.5z" />
<glyph unicode="&#xa3;" horiz-adv-x="1124" d="M94 41v119q0 44 31 57l100 43v287h-88q-41 0 -41 39v182q0 47 41 47h88v158q0 215 128 348t331 133q249 0 363 -172q19 -28 0 -53l-121 -144q-10 -12 -28 -13t-34 13q-78 78 -164 78q-74 0 -117.5 -45.5t-43.5 -134.5v-168h299q21 0 33 -12.5t12 -30.5v-180 q0 -41 -43 -41l-301 -2l2 -234q0 -17 5 -21.5t19 -4.5h451q31 0 31 -33l-3 -217q0 -39 -36 -39h-873q-22 0 -31.5 9.5t-9.5 31.5z" />
<glyph unicode="&#xa5;" horiz-adv-x="1310" d="M44.5 1423q6.5 11 23.5 11h294q37 0 50 -31l227 -535l18 -41l19 41l229 539q12 27 39 27h297q19 0 25.5 -14.5t-4.5 -39.5l-289 -557h127q19 0 30 -11t11 -28v-118q0 -39 -37 -39h-236l-43 -82h275q18 0 29.5 -11.5t11.5 -29.5v-109q0 -47 -41 -47h-277l-2 -307 q0 -20 -11 -31.5t-30 -11.5h-258q-33 0 -33 41l-2 307h-274q-41 0 -41 37l-2 121q0 41 39 41h276l-41 80h-233q-39 0 -39 37l-2 124q0 37 37 37h135l-297 572q-7 17 -0.5 28z" />
<glyph unicode="&#xa7;" horiz-adv-x="913" d="M80 123l74 178q4 10 15 13t21 -3q18 -10 47 -25t100 -40t118 -25q102 0 102 78q0 26 -17 48t-50.5 41t-68.5 34.5t-85.5 38t-87.5 43.5q-158 92 -158 264q0 48 29 98t76 90q-105 91 -105 205q0 121 103.5 203t261.5 82q94 0 178 -20.5t121 -41.5l37 -20q20 -14 10 -37 l-72 -174q-9 -18 -33 -8q-120 63 -204 63q-86 0 -86 -59q0 -27 24 -51.5t62 -45t84.5 -42.5t93 -50t84.5 -61.5t62 -83t24 -108.5q0 -102 -86 -213q86 -78 86 -172q0 -149 -101.5 -244.5t-281.5 -95.5q-175 0 -363 100q-25 12 -14 41zM379 756q0 -36 46.5 -68t125.5 -67 q22 28 22 71q0 37 -40 65.5t-113 59.5q-41 -13 -41 -61z" />
<glyph unicode="&#xa8;" horiz-adv-x="923" d="M92 1317q0 69 48 116.5t114 47.5q74 0 115 -38.5t47 -105.5q6 -83 -38 -129.5t-126 -48.5q-72 -2 -116 40.5t-44 117.5zM506 1317q0 69 48 116.5t114 47.5q74 0 114.5 -38.5t46.5 -105.5q6 -83 -37.5 -129.5t-125.5 -48.5q-72 -2 -116 40.5t-44 117.5z" />
<glyph unicode="&#xa9;" horiz-adv-x="1490" d="M72.5 592.5q-10.5 120.5 2 241t68.5 230t135.5 194.5t202.5 135.5t269 52.5q183 2 328.5 -77.5t221.5 -207.5t112 -284t1 -312.5t-111.5 -285.5t-226 -210t-342.5 -81q-145 0 -265.5 49.5t-198.5 133.5t-132 192.5t-64.5 229zM246.5 620.5q8.5 -93.5 48.5 -178t97.5 -150 t147.5 -104t197 -38.5q113 0 207 39t154.5 104.5t103 150.5t51.5 179t0.5 188t-50 179t-101 150.5t-151.5 104.5t-201 39q-109 -1 -200 -41t-150 -105.5t-101 -151t-51.5 -179t-1 -187zM463 717q1 99 39 176t103 118.5t151.5 49.5t183.5 -31q18 -10 16 -22l-26 -113 q-6 -19 -25 -14q-128 36 -203.5 -8t-76.5 -162q0 -107 87 -155t193 1q8 4 13.5 1t7.5 -11l35 -101q7 -17 -11 -26q-68 -29 -138 -34.5t-132 14t-111 59.5t-77.5 106.5t-28.5 151.5z" />
<glyph unicode="&#xab;" horiz-adv-x="1255" d="M86 518q-23 34 0 66l297 393q24 30 61 10l172 -92q34 -20 9 -57l-211 -287l211 -287q23 -38 -11 -57l-172 -94q-17 -9 -33.5 -5.5t-25.5 17.5zM627 518q-23 34 0 66l297 393q24 30 61 10l172 -92q34 -20 8 -57l-211 -287l211 -287q23 -38 -10 -57l-172 -94 q-17 -9 -33.5 -5.5t-25.5 17.5z" />
<glyph unicode="&#xad;" horiz-adv-x="1019" d="M92 475v209q0 43 39 43h756q19 0 30 -12t11 -31v-203q0 -45 -41 -45l-752 -2q-19 0 -31 11t-12 30z" />
<glyph unicode="&#xae;" horiz-adv-x="1490" d="M72.5 592.5q-10.5 120.5 2 241t68.5 230t135.5 194.5t202.5 135.5t269 52.5q183 2 328.5 -77.5t221.5 -207.5t112 -284t1 -312.5t-111.5 -285.5t-226 -210t-342.5 -81q-145 0 -265.5 49.5t-198.5 133.5t-132 192.5t-64.5 229zM246.5 620.5q8.5 -93.5 48.5 -178t97.5 -150 t147.5 -104t197 -38.5q113 0 207 39t154.5 104.5t103 150.5t51.5 179t0.5 188t-50 179t-101 150.5t-151.5 104.5t-201 39q-109 -1 -200 -41t-150 -105.5t-101 -151t-51.5 -179t-1 -187zM539 412v620q0 25 20 25h250q96 0 146.5 -52t50.5 -145q0 -72 -24 -114.5t-71 -71.5 l11 -27l73 -231q7 -17 -10 -17l-127 -2q-13 0 -18 15l-66 237h-86l2 -235q0 -17 -14 -17h-123q-14 0 -14 15zM686 922l2 -131q0 -15 19 -15h65q42 0 61 19.5t19 64.5q0 74 -80 74h-76q-10 0 -10 -12z" />
<glyph unicode="&#xaf;" horiz-adv-x="901" d="M104 1245v164q0 45 43 45h609q19 0 30 -11.5t11 -31.5v-164q0 -43 -41 -43l-606 -2q-21 0 -33.5 12t-12.5 31z" />
<glyph unicode="&#xb0;" horiz-adv-x="589" d="M55 1235q0 90 62.5 156t177.5 67q111 3 175.5 -64.5t64.5 -158.5q0 -90 -63.5 -155.5t-178.5 -65.5h-4q-109 0 -171.5 65.5t-62.5 155.5zM231 1237q0 -28 17.5 -49t48.5 -21t48 20t17 48q0 27 -17.5 47.5t-47.5 20.5q-31 0 -48.5 -19.5t-17.5 -46.5z" />
<glyph unicode="&#xb4;" horiz-adv-x="743" d="M109 1239q-9 42 16 57q13 8 203.5 114.5t216.5 119.5q28 13 47 4t24 -37l21 -160q5 -38 -33 -55q-33 -14 -416 -131q-53 -14 -61 18z" />
<glyph unicode="&#xb6;" horiz-adv-x="1077" d="M73.5 969q-2.5 87 29.5 170.5t92.5 149t162 105.5t228.5 40h311q35 0 35 -39q-1 -242 -0.5 -723.5t2.5 -628.5q0 -27 -8.5 -36t-34.5 -9h-244q-22 0 -30.5 10t-8.5 35q0 4 1 166t1 295h-24q-119 0 -217.5 40t-160.5 105.5t-97 149t-37.5 170.5z" />
<glyph unicode="&#xb7;" horiz-adv-x="534" d="M72 723q0 83 57 140t137 57q90 0 138.5 -45.5t56.5 -126.5q7 -98 -46.5 -154.5t-150.5 -58.5q-87 -2 -139.5 48t-52.5 140z" />
<glyph unicode="&#xb8;" horiz-adv-x="471" d="M25.5 -280.5q-6.5 24.5 9.5 49.5q11 19 116 169t117 166q13 17 39 17h86q18 0 24 -10t-1 -29q-22 -58 -54.5 -142t-57 -146.5t-25.5 -65.5q-14 -35 -56 -35l-164 2q-27 0 -33.5 24.5z" />
<glyph unicode="&#xbb;" horiz-adv-x="1255" d="M90 264l211 287l-211 287q-26 37 8 57l172 92q38 20 62 -10l297 -393q23 -32 0 -66l-297 -393q-9 -14 -26 -17.5t-34 5.5l-172 94q-33 19 -10 57zM631 264l211 287l-211 287q-26 37 8 57l172 92q37 20 61 -10l297 -393q23 -32 0 -66l-297 -393q-9 -14 -25.5 -17.5 t-33.5 5.5l-172 94q-33 19 -10 57z" />
<glyph unicode="&#xbf;" horiz-adv-x="976" d="M57 328q0 73 17.5 132.5t46 99.5t63 74t69.5 63.5t64.5 60t50 72t23.5 90.5q0 22 23 22h282q23 0 23 -22q0 -78 -19 -143t-48.5 -108t-66 -79t-73 -63.5t-66 -52t-48.5 -53.5t-19 -61q0 -43 25 -69.5t69 -26.5q43 0 75 31t42 92q3 23 22 23l283 -2q20 0 20 -23 q0 -82 -27 -154.5t-79 -129.5t-135.5 -90.5t-188.5 -33.5q-87 0 -159 19.5t-121 52.5t-83 78t-49.5 95.5t-15.5 105.5zM358 1255q0 83 57.5 140t137.5 57q90 0 138.5 -45.5t56.5 -126.5q7 -98 -46.5 -154.5t-150.5 -58.5q-87 -2 -140 48t-53 140z" />
<glyph unicode="&#xc0;" d="M39 35l401 1364q10 35 35 35l256 2q27 0 39 -35l410 -1364q4 -14 -4.5 -24.5t-24.5 -12.5h-250q-24 0 -33 31l-55 211q-9 32 -31 32h-344q-19 0 -28 -32l-54 -209q-5 -17 -11.5 -25t-20.5 -8h-258q-14 0 -22.5 10.5t-4.5 24.5zM344 1753l21 160q5 28 24 37t47 -4 q26 -13 216.5 -119.5t203.5 -114.5q29 -17 16 -57l-18 -70q-8 -32 -61 -18q-397 122 -416 131q-38 17 -33 55zM487 551q-4 -16 7 -16h233q10 0 6 18l-119 463q-1 3 -2.5 4.5t-3 0.5t-2.5 -5z" />
<glyph unicode="&#xc1;" d="M39 35l407 1370q9 29 37 29l250 2q30 0 39 -29l408 -1370q11 -37 -21 -37h-262q-24 0 -33 31l-55 217q-4 15 -10.5 20.5t-18.5 5.5h-342q-21 0 -28 -24l-60 -223q-8 -27 -35 -27h-256q-13 0 -19 10t-1 25zM344 1655q-13 40 16 57q13 8 203.5 114.5t216.5 119.5 q28 13 47.5 4t24.5 -37l20 -160q5 -39 -32 -55q-19 -9 -416 -131q-54 -14 -62 18zM489 551q-4 -16 7 -16h225q11 0 8 16l-115 465q-1 3 -2.5 4.5t-3 0.5t-2.5 -5z" />
<glyph unicode="&#xc2;" d="M39 35l407 1370q9 29 37 29l250 2q30 0 39 -29l408 -1370q11 -37 -21 -37h-262q-24 0 -33 31l-55 217q-4 15 -10.5 20.5t-18.5 5.5h-342q-21 0 -28 -24l-60 -223q-8 -27 -35 -27h-256q-13 0 -19 10t-1 25zM360 1569.5q-6 8.5 0 23.5l113 332q9 25 31 25h205q23 0 32 -23 q51 -136 117 -334q5 -14 0 -23t-18 -9h-125q-24 0 -33 12q-3 4 -14.5 31t-22.5 55.5t-22 56.5l-11 29q-5 13 -10 0q-1 -2 -31.5 -80t-35.5 -86q-3 -6 -13.5 -12t-19.5 -6h-121q-15 0 -21 8.5zM489 551q-4 -16 7 -16h225q11 0 8 16l-115 465q-1 3 -2.5 4.5t-3 0.5t-2.5 -5z " />
<glyph unicode="&#xc3;" d="M39 35l401 1364q10 35 35 35l256 2q27 0 39 -35l410 -1364q4 -14 -4.5 -24.5t-24.5 -12.5h-250q-24 0 -33 31l-55 211q-9 32 -31 32h-344q-19 0 -28 -32l-54 -209q-5 -17 -11.5 -25t-20.5 -8h-258q-14 0 -22.5 10.5t-4.5 24.5zM204 1603.5q-5 18.5 3 55.5q27 101 96 154 t166 53q55 0 102.5 -23t83.5 -46t64 -23q58 0 80 57q17 50 61 37l113 -37q30 -10 37.5 -25t1.5 -47q-22 -99 -96 -158t-187 -59q-43 0 -81.5 13.5t-61.5 29.5t-47.5 29.5t-42.5 13.5q-54 0 -80 -45q-13 -26 -24.5 -34.5t-33.5 -4.5q-49 12 -125 35q-24 6 -29 24.5zM487 551 q-4 -16 7 -16h233q10 0 6 18l-119 463q-1 3 -2.5 4.5t-3 0.5t-2.5 -5z" />
<glyph unicode="&#xc4;" d="M39 35l407 1370q9 29 37 29l250 2q30 0 39 -29l408 -1370q11 -37 -21 -37h-262q-24 0 -33 31l-55 217q-4 15 -10.5 20.5t-18.5 5.5h-342q-21 0 -28 -24l-60 -223q-8 -27 -35 -27h-256q-13 0 -19 10t-1 25zM225 1718q0 68 47.5 116t114.5 48q74 0 115 -38t47 -105 q6 -83 -38 -129.5t-126 -48.5q-72 -2 -116 40t-44 117zM489 551q-4 -16 7 -16h225q11 0 8 16l-115 465q-1 3 -2.5 4.5t-3 0.5t-2.5 -5zM639 1718q0 68 47.5 116t114.5 48q74 0 115 -38t47 -105q6 -83 -38 -129.5t-126 -48.5q-72 -2 -116 40t-44 117z" />
<glyph unicode="&#xc5;" d="M39 35l407 1370q9 29 37 29l250 2q30 0 39 -29l408 -1370q11 -37 -21 -37h-262q-24 0 -33 31l-55 217q-4 15 -10.5 20.5t-18.5 5.5h-342q-21 0 -28 -24l-60 -223q-8 -27 -35 -27h-256q-13 0 -19 10t-1 25zM410 1720q0 72 51 123.5t145 52.5q90 1 142.5 -53t52.5 -127 q0 -71 -51.5 -123t-145.5 -53h-4q-88 0 -139 54t-51 126zM489 551q-4 -16 7 -16h225q11 0 8 16l-115 465q-1 3 -2.5 4.5t-3 0.5t-2.5 -5zM555 1718q0 -22 14 -38.5t39 -16.5t38 14.5t13 36.5t-13 39.5t-38 18.5q-25 0 -39 -16t-14 -38z" />
<glyph unicode="&#xc6;" horiz-adv-x="1835" d="M23.5 11q-4.5 13 3.5 28l680 1356q8 19 24.5 29t30.5 10l950 2q14 0 23.5 -10t9.5 -23l-2 -221q0 -14 -9.5 -23.5t-23.5 -9.5l-493 -2q-13 0 -17 -4.5t-6 -18.5v-237q0 -19 25 -19h407q13 0 22 -9t9 -23l-2 -215q0 -13 -10.5 -22t-24.5 -9h-401q-27 0 -27 -25v-266 q0 -12 5 -15t17 -3h484q13 0 22 -10.5t9 -24.5l-3 -219q0 -29 -26 -29h-803q-15 0 -24 8.5t-9 22.5l2 239h-387l-104 -231q-20 -39 -58 -39h-272q-17 0 -21.5 13zM616 559l252 2l6 557z" />
<glyph unicode="&#xc7;" horiz-adv-x="1112" d="M74 709q0 176 51.5 319t138 232t195 136.5t227.5 47.5q82 0 151.5 -19t115.5 -50t72 -55.5t44 -49.5q21 -30 -4 -58l-127 -153q-11 -12 -26.5 -11.5t-26.5 11.5q-30 30 -85 54t-106 24q-120 0 -208.5 -114.5t-88.5 -322.5q0 -109 30.5 -192.5t79 -129.5t100.5 -68.5 t104 -22.5q54 0 103 21t81 50q30 27 59 -6l125 -139q12 -14 13.5 -24t-7.5 -25q-15 -25 -43 -52t-71 -56.5t-106.5 -50.5t-135.5 -25q-67 -183 -96 -250q-19 -39 -58 -39l-159 4q-27 1 -35 25t6 49l156 227q-213 48 -341 230t-128 483z" />
<glyph unicode="&#xc8;" horiz-adv-x="1114" d="M143 33l2 1368q0 33 33 33h813q33 0 33 -31l-2 -223q0 -33 -33 -33h-491q-25 0 -25 -23v-235q0 -21 25 -21h407q31 0 31 -30l-2 -215q0 -14 -9 -23.5t-22 -9.5h-405q-27 0 -27 -25v-266q0 -18 25 -18h497q13 0 22 -8.5t9 -22.5l-2 -221q0 -31 -33 -31h-813q-33 0 -33 35z M319 1753l21 160q5 28 24.5 37t47.5 -4q25 -13 215.5 -119.5t203.5 -114.5q30 -18 17 -57l-19 -70q-8 -32 -61 -18q-397 122 -416 131q-38 17 -33 55z" />
<glyph unicode="&#xc9;" horiz-adv-x="1114" d="M143 33l2 1368q0 33 33 33h813q33 0 33 -31l-2 -223q0 -33 -33 -33h-491q-25 0 -25 -23v-235q0 -21 25 -21h407q31 0 31 -30l-2 -215q0 -14 -9 -23.5t-22 -9.5h-405q-27 0 -27 -25v-266q0 -18 25 -18h497q13 0 22 -8.5t9 -22.5l-2 -221q0 -31 -33 -31h-813q-33 0 -33 35z M344 1655q-9 42 16 57q13 8 203.5 114.5t216.5 119.5q28 13 47.5 4t24.5 -37l20 -160q5 -39 -32 -55q-33 -14 -416 -131q-54 -14 -62 18z" />
<glyph unicode="&#xca;" horiz-adv-x="1114" d="M143 33l2 1368q0 33 33 33h813q33 0 33 -31l-2 -223q0 -33 -33 -33h-491q-25 0 -25 -23v-235q0 -21 25 -21h407q31 0 31 -30l-2 -215q0 -14 -9 -23.5t-22 -9.5h-405q-27 0 -27 -25v-266q0 -18 25 -18h497q13 0 22 -8.5t9 -22.5l-2 -221q0 -31 -33 -31h-813q-33 0 -33 35z M323.5 1569.5q-5.5 8.5 0.5 23.5l112 332q9 25 31 25h205q24 0 33 -23q42 -112 116 -334q5 -14 0 -23t-18 -9h-125q-24 0 -33 12q-3 4 -14.5 31t-22.5 55.5t-22 56.5l-11 29q-5 13 -10 0q-1 -2 -31.5 -80t-35.5 -86q-3 -6 -13.5 -12t-19.5 -6h-121q-15 0 -20.5 8.5z" />
<glyph unicode="&#xcb;" horiz-adv-x="1114" d="M143 33l2 1368q0 33 33 33h813q33 0 33 -31l-2 -223q0 -33 -33 -33h-491q-25 0 -25 -23v-235q0 -21 25 -21h407q31 0 31 -30l-2 -215q0 -14 -9 -23.5t-22 -9.5h-405q-27 0 -27 -25v-266q0 -18 25 -18h497q13 0 22 -8.5t9 -22.5l-2 -221q0 -31 -33 -31h-813q-33 0 -33 35z M215 1718q0 68 47.5 116t114.5 48q74 0 115 -38t47 -105q6 -83 -38 -129.5t-126 -48.5q-72 -2 -116 40t-44 117zM629 1718q0 68 47.5 116t114.5 48q74 0 114.5 -38t46.5 -105q6 -83 -38 -129.5t-126 -48.5q-72 -2 -115.5 40t-43.5 117z" />
<glyph unicode="&#xcc;" horiz-adv-x="614" d="M57 1753l21 160q5 28 24.5 37t47.5 -4q25 -13 215.5 -119.5t203.5 -114.5q30 -18 17 -57l-19 -70q-8 -32 -61 -18q-397 122 -416 131q-38 17 -33 55zM143 33v1366q0 15 10 27t23 12h262q13 0 23 -12t10 -27l-2 -1362q0 -15 -8 -26.5t-21 -12.5l-264 -2q-14 -2 -23.5 9 t-9.5 28z" />
<glyph unicode="&#xcd;" horiz-adv-x="614" d="M47 1655q-13 40 16 57q13 8 203.5 114.5t216.5 119.5q28 13 47.5 4t24.5 -37l20 -160q5 -39 -32 -55q-19 -9 -416 -131q-53 -14 -61 18zM143 33v1366q0 15 10 27t23 12h262q13 0 23 -12t10 -27l-2 -1362q0 -15 -8 -26.5t-21 -12.5l-264 -2q-14 -2 -23.5 9t-9.5 28z" />
<glyph unicode="&#xce;" horiz-adv-x="614" d="M67.5 1569.5q-5.5 8.5 0.5 23.5l112 332q9 25 31 25h205q24 0 33 -23q42 -112 116 -334q5 -14 0 -23t-18 -9h-125q-24 0 -33 12q-3 4 -14.5 31t-22.5 55.5t-22 56.5l-11 29q-5 13 -10 0q-1 -2 -31.5 -80t-35.5 -86q-3 -6 -13.5 -12t-19.5 -6h-121q-15 0 -20.5 8.5z M143 33v1366q0 15 10 27t23 12h262q13 0 23 -12t10 -27l-2 -1362q0 -15 -8 -26.5t-21 -12.5l-264 -2q-14 -2 -23.5 9t-9.5 28z" />
<glyph unicode="&#xcf;" horiz-adv-x="614" d="M-68 1718q0 68 48 116t114 48q74 0 115 -38t47 -105q6 -83 -38 -129.5t-126 -48.5q-72 -2 -116 40t-44 117zM143 33v1366q0 15 10 27t23 12h262q13 0 23 -12t10 -27l-2 -1362q0 -15 -8 -26.5t-21 -12.5l-264 -2q-14 -2 -23.5 9t-9.5 28zM346 1718q0 68 48 116t114 48 q74 0 115 -38t47 -105q6 -83 -38 -129.5t-126 -48.5q-72 -2 -116 40t-44 117z" />
<glyph unicode="&#xd0;" horiz-adv-x="1277" d="M43 784q0 19 12 32t31 13h80v568q0 41 37 41q36 0 151 -1t156 -1q110 -1 207 -23.5t187.5 -76t155 -135t103.5 -208.5t39 -288q0 -154 -38 -276.5t-100 -202t-147.5 -132.5t-175.5 -75t-188 -23h-348q-37 0 -37 41l-2 530h-76q-19 0 -32 12t-13 31zM487 571l2 -276 q16 0 41.5 1t38.5 1q82 2 142.5 32.5t97.5 86t54.5 128.5t17.5 165q0 196 -91.5 303.5t-230.5 107.5h-72v-289l164 3q19 0 32 -13t13 -30l-2 -170q0 -20 -11.5 -34t-29.5 -14z" />
<glyph unicode="&#xd1;" horiz-adv-x="1357" d="M141 33v1368q0 19 7.5 27t25.5 8h229q17 0 25.5 -5.5t17.5 -21.5l455 -805q-2 49 -2 72v727q0 33 29 33h258q31 0 31 -31v-1368q0 -21 -8.5 -29t-26.5 -8h-232q-14 0 -22 1.5t-18 9t-19 22.5l-440 770q2 -51 2 -74v-694q0 -35 -31 -35l-248 -2q-33 0 -33 35zM276 1603.5 q-5 18.5 3 55.5q27 101 96 154t166 53q55 0 102.5 -23t83.5 -46t64 -23q57 0 79 57q17 51 62 37l112 -37q30 -10 37.5 -25t1.5 -47q-22 -99 -95.5 -158t-186.5 -59q-55 0 -101 21.5t-78.5 43t-54.5 21.5q-54 0 -80 -45q-13 -26 -24 -34.5t-33 -4.5q-49 12 -125 35 q-24 6 -29 24.5z" />
<glyph unicode="&#xd2;" horiz-adv-x="1302" d="M98 721q1 113 21 216.5t63.5 196.5t107 161.5t157 108.5t206.5 40q144 0 252.5 -54.5t173.5 -152.5t97 -224t32 -280q0 -120 -15.5 -224t-55.5 -203.5t-102 -169t-161.5 -112t-228.5 -42.5q-113 0 -205.5 41.5t-155 112t-105.5 166t-62.5 201t-18.5 218.5zM367 1753 l20 160q5 28 24.5 37t47.5 -4q26 -13 216.5 -119.5t203.5 -114.5q29 -17 16 -57l-18 -70q-8 -32 -62 -18q-397 122 -416 131q-37 16 -32 55zM410 709q0 -198 65 -317.5t182 -119.5q115 1 177.5 122t62.5 319q0 122 -26 216.5t-81 152t-133 57.5q-82 0 -139 -59.5t-82.5 -154 t-25.5 -216.5z" />
<glyph unicode="&#xd3;" horiz-adv-x="1302" d="M98 721q1 113 21 216.5t63.5 196.5t107 161.5t157 108.5t206.5 40q144 0 252.5 -54.5t173.5 -152.5t97 -224t32 -280q0 -120 -15.5 -224t-55.5 -203.5t-102 -169t-161.5 -112t-228.5 -42.5q-113 0 -205.5 41.5t-155 112t-105.5 166t-62.5 201t-18.5 218.5zM377 1655 q-13 40 16 57q13 8 203.5 114.5t216.5 119.5q28 13 47.5 4t24.5 -37l20 -160q5 -38 -33 -55q-20 -10 -415 -131q-54 -14 -62 18zM410 709q0 -198 65 -317.5t182 -119.5q115 1 177.5 122t62.5 319q0 122 -26 216.5t-81 152t-133 57.5q-82 0 -139 -59.5t-82.5 -154 t-25.5 -216.5z" />
<glyph unicode="&#xd4;" horiz-adv-x="1302" d="M98 721q1 113 21 216.5t63.5 196.5t107 161.5t157 108.5t206.5 40q144 0 252.5 -54.5t173.5 -152.5t97 -224t32 -280q0 -120 -15.5 -224t-55.5 -203.5t-102 -169t-161.5 -112t-228.5 -42.5q-113 0 -205.5 41.5t-155 112t-105.5 166t-62.5 201t-18.5 218.5zM389 1569.5 q-6 8.5 0 23.5l113 332q9 25 30 25h205q24 0 33 -23q51 -136 117 -334q5 -14 -0.5 -23t-18.5 -9h-125q-23 0 -32 12q-3 4 -14.5 31t-22.5 55.5t-22 56.5l-11 29q-5 13 -10 0q-1 -2 -32 -80t-36 -86q-3 -6 -13.5 -12t-19.5 -6h-120q-15 0 -21 8.5zM410 709q0 -198 65 -317.5 t182 -119.5q115 1 177.5 122t62.5 319q0 122 -26 216.5t-81 152t-133 57.5q-82 0 -139 -59.5t-82.5 -154t-25.5 -216.5z" />
<glyph unicode="&#xd5;" horiz-adv-x="1302" d="M98 721q1 113 21 216.5t63.5 196.5t107 161.5t157 108.5t206.5 40q144 0 252.5 -54.5t173.5 -152.5t97 -224t32 -280q0 -120 -15.5 -224t-55.5 -203.5t-102 -169t-161.5 -112t-228.5 -42.5q-113 0 -205.5 41.5t-155 112t-105.5 166t-62.5 201t-18.5 218.5zM269.5 1603.5 q-5.5 18.5 2.5 55.5q27 101 96.5 154t166.5 53q55 0 102.5 -23t83 -46t63.5 -23q58 0 80 57q17 51 62 37l112 -37q30 -10 37.5 -25t1.5 -47q-22 -99 -95.5 -158t-186.5 -59q-55 0 -101 21.5t-78.5 43t-54.5 21.5q-54 0 -80 -45q-13 -26 -24 -34.5t-33 -4.5q-49 12 -125 35 q-24 6 -29.5 24.5zM410 709q0 -198 65 -317.5t182 -119.5q115 1 177.5 122t62.5 319q0 122 -26 216.5t-81 152t-133 57.5q-82 0 -139 -59.5t-82.5 -154t-25.5 -216.5z" />
<glyph unicode="&#xd6;" horiz-adv-x="1302" d="M98 721q1 113 21 216.5t63.5 196.5t107 161.5t157 108.5t206.5 40q144 0 252.5 -54.5t173.5 -152.5t97 -224t32 -280q0 -120 -15.5 -224t-55.5 -203.5t-102 -169t-161.5 -112t-228.5 -42.5q-113 0 -205.5 41.5t-155 112t-105.5 166t-62.5 201t-18.5 218.5zM281 1718 q0 69 47.5 116.5t113.5 47.5q74 0 115 -38t47 -105q6 -83 -38 -129.5t-126 -48.5q-72 -2 -115.5 40t-43.5 117zM410 709q0 -198 65 -317.5t182 -119.5q115 1 177.5 122t62.5 319q0 122 -26 216.5t-81 152t-133 57.5q-82 0 -139 -59.5t-82.5 -154t-25.5 -216.5zM694 1718 q0 68 48 116t114 48q74 0 115 -38t47 -105q6 -83 -38 -129.5t-126 -48.5q-72 -2 -116 40t-44 117z" />
<glyph unicode="&#xd8;" horiz-adv-x="1300" d="M98 721q1 113 21 216.5t63.5 196.5t107 161.5t157 108.5t206.5 40q117 0 215 -39l31 61q12 27 39 27l186 -2q17 0 24 -12t-1 -27l-92 -182q153 -186 153 -537q0 -120 -15.5 -224t-55.5 -203.5t-102 -169t-161.5 -112t-228.5 -42.5q-123 0 -223 49l-37 -74 q-11 -23 -45 -23l-174 5q-13 0 -18 10.5t2 27.5l100 201q-76 103 -115 245.5t-37 297.5zM410 709q0 -95 16 -183l301 598q-35 15 -70 15q-82 0 -139 -59.5t-82.5 -154t-25.5 -216.5zM559 299q43 -27 98 -27q115 1 177.5 122t62.5 319q0 110 -25 202z" />
<glyph unicode="&#xd9;" horiz-adv-x="1290" d="M119 1236v165q0 35 31 35h270q17 0 23 -7.5t6 -25.5q2 -664 8 -895q3 -111 54.5 -170t143.5 -59q94 0 144.5 56t50.5 167l-2 901q0 19 6 26t25 7l268 -2q27 -2 27 -33q1 -51 2 -138t2 -319t0 -420q-2 -254 -140 -398t-385 -144q-245 0 -381.5 141.5t-144.5 390.5 q-4 115 -6 336.5t-2 385.5zM381 1753l20 160q5 28 24.5 37t47.5 -4q26 -13 216.5 -119.5t203.5 -114.5q29 -17 16 -57l-18 -70q-8 -32 -62 -18q-395 121 -415 131q-38 17 -33 55z" />
<glyph unicode="&#xda;" horiz-adv-x="1290" d="M119 1236v165q0 35 31 35h270q17 0 23 -7.5t6 -25.5q2 -664 8 -895q3 -111 54.5 -170t143.5 -59q94 0 144.5 56t50.5 167l-2 901q0 19 6 26t25 7l268 -2q27 -2 27 -33q1 -51 2 -138t2 -319t0 -420q-2 -254 -140 -398t-385 -144q-245 0 -381.5 141.5t-144.5 390.5 q-4 115 -6 336.5t-2 385.5zM369 1655q-13 40 16 57q13 8 203.5 114.5t216.5 119.5q28 13 47.5 4t24.5 -37l20 -160q5 -38 -33 -55q-20 -10 -415 -131q-54 -14 -62 18z" />
<glyph unicode="&#xdb;" horiz-adv-x="1290" d="M119 1236v165q0 35 31 35h270q17 0 23 -7.5t6 -25.5q2 -664 8 -895q3 -111 54.5 -170t143.5 -59q94 0 144.5 56t50.5 167l-2 901q0 19 6 26t25 7l268 -2q27 -2 27 -33q1 -51 2 -138t2 -319t0 -420q-2 -254 -140 -398t-385 -144q-245 0 -381.5 141.5t-144.5 390.5 q-4 115 -6 336.5t-2 385.5zM389 1569.5q-6 8.5 0 23.5l113 332q9 25 30 25h205q24 0 33 -23q51 -136 117 -334q5 -14 -0.5 -23t-18.5 -9h-125q-23 0 -32 12q-3 4 -14.5 31t-22.5 55.5t-22 56.5l-11 29q-5 13 -10 0q-1 -2 -32 -80t-36 -86q-3 -6 -13.5 -12t-19.5 -6h-120 q-15 0 -21 8.5z" />
<glyph unicode="&#xdc;" horiz-adv-x="1290" d="M119 1236v165q0 35 31 35h270q17 0 23 -7.5t6 -25.5q2 -664 8 -895q3 -111 54.5 -170t143.5 -59q94 0 144.5 56t50.5 167l-2 901q0 19 6 26t25 7l268 -2q27 -2 27 -33q1 -51 2 -138t2 -319t0 -420q-2 -254 -140 -398t-385 -144q-245 0 -381.5 141.5t-144.5 390.5 q-4 115 -6 336.5t-2 385.5zM270 1718q0 68 48 116t114 48q74 0 115 -38t47 -105q6 -83 -38 -129.5t-126 -48.5q-72 -2 -116 40t-44 117zM684 1718q0 68 48 116t114 48q74 0 115 -38t47 -105q6 -83 -38 -129.5t-126 -48.5q-72 -2 -116 40t-44 117z" />
<glyph unicode="&#xdd;" horiz-adv-x="1261" d="M19.5 1423q6.5 11 23.5 11h297q34 0 47 -31l227 -535l19 -41l18 41l230 539q12 27 39 27h297q19 0 25 -13.5t-5 -36.5l-436 -841q0 -24 -4 -506q0 -39 -39 -39h-258q-17 0 -27 11t-10 28v506l-443 852q-7 17 -0.5 28zM360 1655q-13 39 17 57q13 8 203.5 114.5 t216.5 119.5q28 13 47 4t24 -37l21 -160q5 -38 -33 -55q-19 -9 -416 -131q-53 -14 -61 18z" />
<glyph unicode="&#xde;" horiz-adv-x="1224" d="M121 1493q0 43 39 43h252q37 0 37 -37q-1 -113 -3 -246q82 2 285 2q209 0 331 -125.5t120 -322.5q-2 -215 -124 -340t-333 -125q-39 0 -281 -4l5 -293q0 -26 -9 -36.5t-34 -10.5h-242q-23 0 -30 8t-7 33q1 82 -2.5 763t-3.5 691zM442 614h10q11 0 27.5 -0.5t38 -0.5h46 h49.5t49.5 1t44.5 2q74 4 116 56.5t45 120.5q5 64 -41.5 118t-124.5 58q-39 2 -103.5 2t-109.5 -1l-45 -1l-2 -178v-177z" />
<glyph unicode="&#xdf;" horiz-adv-x="1204" d="M123 41v954q0 40 2.5 77t14 96t31.5 107.5t58.5 101.5t90.5 88.5t133.5 57.5t181.5 19q106 -4 190.5 -42.5t137 -101.5t79.5 -141.5t27 -166.5q0 -66 -16.5 -122t-40 -89t-47 -56t-39.5 -32l-17 -9q5 -1 13 -3t31.5 -12.5t45 -25.5t47.5 -43t44.5 -62.5t31.5 -87.5 t13 -116q0 -200 -111 -316t-313 -116h-117q-33 0 -33 35q0 14 1 107t1 104q0 16 11.5 25.5t27.5 9.5h76q73 0 112 46.5t37 116.5q-2 66 -38 110t-93 44h-84q-49 0 -49 41v207q0 15 7.5 23t31.5 8q72 0 109 52t37 136q0 91 -38.5 148t-107.5 57q-80 0 -126 -64t-46 -192v-975 q0 -39 -39 -39h-231q-37 0 -37 41z" />
<glyph unicode="&#xe0;" horiz-adv-x="1087" d="M74 264q0 116 68.5 199t189.5 112q70 16 153 30t131 20l48 6v21t-1 33t-9.5 33.5t-22.5 33t-42 22.5t-67 10q-35 0 -66.5 -4t-64 -15t-48 -16.5t-50.5 -21.5t-39 -18q-22 -9 -33.5 -5.5t-21.5 23.5l-70 150q-19 42 18 63l12 6q55 28 92.5 44t120.5 34t173 18 q59 0 111.5 -7.5t113.5 -31t104.5 -62t73.5 -107t31 -158.5q5 -464 0 -631q-1 -30 -11 -38.5t-36 -8.5h-230q-20 0 -29 9.5t-9 33.5v74q-3 -5 -9 -14t-29.5 -31.5t-53.5 -40t-83.5 -31.5t-115.5 -14q-140 0 -219.5 77t-79.5 203zM301 1337l21 160q5 28 24 37t47 -4 q26 -13 216.5 -119.5t203.5 -114.5q25 -15 16 -57l-18 -70q-8 -32 -61 -18q-383 117 -416 131q-38 17 -33 55zM379 297q0 -35 23.5 -54.5t62.5 -17.5q15 0 30 2.5t29 7t26.5 9t25.5 12t21.5 13t20 13.5t16 11.5t12.5 10.5l9 7q9 9 9 17v96q0 16 -17 14q-18 -2 -78 -14 t-73 -14q-52 -9 -84.5 -40.5t-32.5 -72.5z" />
<glyph unicode="&#xe1;" horiz-adv-x="1087" d="M74 264q0 116 68.5 199t189.5 112q70 16 153 30t131 20l48 6v21t-1 33t-9.5 33.5t-22.5 33t-42 22.5t-67 10q-35 0 -66.5 -4t-64 -15t-48 -16.5t-50.5 -21.5t-39 -18q-22 -9 -33.5 -5.5t-21.5 23.5l-70 150q-19 42 18 63l12 6q55 28 92.5 44t120.5 34t173 18 q59 0 111.5 -7.5t113.5 -31t104.5 -62t73.5 -107t31 -158.5q5 -464 0 -631q-1 -30 -11 -38.5t-36 -8.5h-230q-20 0 -29 9.5t-9 33.5v74q-3 -5 -9 -14t-29.5 -31.5t-53.5 -40t-83.5 -31.5t-115.5 -14q-140 0 -219.5 77t-79.5 203zM322 1239q-9 42 16 57q13 8 203.5 114.5 t216.5 119.5q28 13 47 4t24 -37l21 -160q5 -38 -33 -55q-33 -14 -416 -131q-53 -14 -61 18zM379 297q0 -35 23.5 -54.5t62.5 -17.5q15 0 30 2.5t29 7t26.5 9t25.5 12t21.5 13t20 13.5t16 11.5t12.5 10.5l9 7q9 9 9 17v96q0 16 -17 14q-18 -2 -78 -14t-73 -14 q-52 -9 -84.5 -40.5t-32.5 -72.5z" />
<glyph unicode="&#xe2;" horiz-adv-x="1087" d="M74 264q0 116 68.5 199t189.5 112q70 16 153 30t131 20l48 6v21t-1 33t-9.5 33.5t-22.5 33t-42 22.5t-67 10q-35 0 -66.5 -4t-64 -15t-48 -16.5t-50.5 -21.5t-39 -18q-22 -9 -33.5 -5.5t-21.5 23.5l-70 150q-19 42 18 63l12 6q55 28 92.5 44t120.5 34t173 18 q59 0 111.5 -7.5t113.5 -31t104.5 -62t73.5 -107t31 -158.5q5 -464 0 -631q-1 -30 -11 -38.5t-36 -8.5h-230q-20 0 -29 9.5t-9 33.5v74q-3 -5 -9 -14t-29.5 -31.5t-53.5 -40t-83.5 -31.5t-115.5 -14q-140 0 -219.5 77t-79.5 203zM305 1158q-6 9 0 24l113 331q9 25 31 25h204 q25 0 33 -22q51 -136 117 -334q5 -14 -0.5 -23.5t-18.5 -9.5h-125q-23 0 -32 12q-3 4 -14.5 31t-22.5 55.5t-22 56.5l-11 29q-5 13 -10 0q-1 -2 -32 -80t-36 -86q-3 -6 -13.5 -12t-19.5 -6h-120q-15 0 -21 9zM379 297q0 -35 23.5 -54.5t62.5 -17.5q15 0 30 2.5t29 7t26.5 9 t25.5 12t21.5 13t20 13.5t16 11.5t12.5 10.5l9 7q9 9 9 17v96q0 16 -17 14q-18 -2 -78 -14t-73 -14q-52 -9 -84.5 -40.5t-32.5 -72.5z" />
<glyph unicode="&#xe3;" horiz-adv-x="1087" d="M74 264q0 116 68.5 199t189.5 112q70 16 153 30t131 20l48 6v21t-1 33t-9.5 33.5t-22.5 33t-42 22.5t-67 10q-35 0 -66.5 -4t-64 -15t-48 -16.5t-50.5 -21.5t-39 -18q-22 -9 -33.5 -5.5t-21.5 23.5l-70 150q-19 42 18 63l12 6q55 28 92.5 44t120.5 34t173 18 q59 0 111.5 -7.5t113.5 -31t104.5 -62t73.5 -107t31 -158.5q5 -464 0 -631q-1 -30 -11 -38.5t-36 -8.5h-230q-20 0 -29 9.5t-9 33.5v74q-3 -5 -9 -14t-29.5 -31.5t-53.5 -40t-83.5 -31.5t-115.5 -14q-140 0 -219.5 77t-79.5 203zM124.5 1224.5q-5.5 18.5 2.5 55.5 q27 100 98.5 153.5t169.5 53.5q55 0 102.5 -22.5t83.5 -45t64 -22.5q58 0 80 57q17 50 61 37l113 -37q31 -10 38 -25t1 -47q-22 -99 -96 -158t-187 -59q-43 0 -81.5 13t-61.5 29t-47.5 29t-42.5 13q-54 0 -80 -45q-13 -26 -24 -34.5t-33 -4.5q-79 19 -131 35 q-24 6 -29.5 24.5zM379 297q0 -35 23.5 -54.5t62.5 -17.5q15 0 30 2.5t29 7t26.5 9t25.5 12t21.5 13t20 13.5t16 11.5t12.5 10.5l9 7q9 9 9 17v96q0 16 -17 14q-18 -2 -78 -14t-73 -14q-52 -9 -84.5 -40.5t-32.5 -72.5z" />
<glyph unicode="&#xe4;" horiz-adv-x="1087" d="M74 264q0 116 68.5 199t189.5 112q70 16 153 30t131 20l48 6v21t-1 33t-9.5 33.5t-22.5 33t-42 22.5t-67 10q-35 0 -66.5 -4t-64 -15t-48 -16.5t-50.5 -21.5t-39 -18q-22 -9 -33.5 -5.5t-21.5 23.5l-70 150q-19 42 18 63l12 6q55 28 92.5 44t120.5 34t173 18 q59 0 111.5 -7.5t113.5 -31t104.5 -62t73.5 -107t31 -158.5q5 -464 0 -631q-1 -30 -11 -38.5t-36 -8.5h-230q-20 0 -29 9.5t-9 33.5v74q-3 -5 -9 -14t-29.5 -31.5t-53.5 -40t-83.5 -31.5t-115.5 -14q-140 0 -219.5 77t-79.5 203zM178 1317q0 69 48 116.5t114 47.5 q74 0 115 -38.5t47 -105.5q6 -83 -38 -129.5t-126 -48.5q-72 -2 -116 40.5t-44 117.5zM379 297q0 -35 23.5 -54.5t62.5 -17.5q15 0 30 2.5t29 7t26.5 9t25.5 12t21.5 13t20 13.5t16 11.5t12.5 10.5l9 7q9 9 9 17v96q0 16 -17 14q-18 -2 -78 -14t-73 -14q-52 -9 -84.5 -40.5 t-32.5 -72.5zM592 1317q0 69 48 116.5t114 47.5q74 0 114.5 -38.5t46.5 -105.5q6 -83 -37.5 -129.5t-125.5 -48.5q-72 -2 -116 40.5t-44 117.5z" />
<glyph unicode="&#xe5;" horiz-adv-x="1087" d="M74 264q0 116 68.5 199t189.5 112q70 16 153 30t131 20l48 6v21t-1 33t-9.5 33.5t-22.5 33t-42 22.5t-67 10q-35 0 -66.5 -4t-64 -15t-48 -16.5t-50.5 -21.5t-39 -18q-22 -9 -33.5 -5.5t-21.5 23.5l-70 150q-19 42 18 63l12 6q55 28 92.5 44t120.5 34t173 18 q59 0 111.5 -7.5t113.5 -31t104.5 -62t73.5 -107t31 -158.5q2 -117 2 -389q0 -181 -2 -242q-1 -30 -11 -38.5t-36 -8.5h-230q-20 0 -29 9.5t-9 33.5v74q-3 -5 -9 -14t-29.5 -31.5t-53.5 -40t-83.5 -31.5t-115.5 -14q-140 0 -219.5 77t-79.5 203zM352 1382q0 72 51.5 124 t145.5 53q90 1 142 -53.5t52 -127.5q0 -72 -51 -123.5t-145 -52.5h-4q-88 0 -139.5 54t-51.5 126zM379 297q0 -35 23.5 -54.5t62.5 -17.5q15 0 30 2.5t29 7t26.5 9t25.5 12t21.5 13t20 13.5t16 11.5t12.5 10.5l9 7q9 9 9 17v96q0 16 -17 14q-18 -2 -78 -14t-73 -14 q-52 -9 -84.5 -40.5t-32.5 -72.5zM498 1380q0 -22 14 -38.5t39 -16.5t38 14.5t13 36.5t-13 39.5t-38 18.5q-25 0 -39 -16t-14 -38z" />
<glyph unicode="&#xe6;" horiz-adv-x="1714" d="M106 258q-2 118 67.5 203t191.5 114q70 16 153 30t130 20l48 6v21.5t-1 32.5t-9 33.5t-22 33t-42 22.5t-67 10q-35 0 -66.5 -4t-64 -15t-48 -16.5t-50.5 -21.5t-39 -18q-22 -9 -34.5 -5.5t-21.5 23.5l-69 150q-10 21 -7 36.5t25 26.5q1 0 23 11.5t27.5 14t28.5 13 t34 14.5t35.5 13t41.5 12.5t44 9.5t50.5 9t53.5 5t60 2q205 0 319 -94q125 98 309 92q83 -3 151.5 -27.5t113.5 -61t79.5 -86.5t53 -98t30.5 -102t15 -91.5t4 -73.5q-2 -26 -12 -38t-35 -13l-580 -9q0 -7 1 -19t10.5 -42.5t26.5 -55t53.5 -47t86.5 -26.5q60 -5 116.5 9 t79 27t58.5 37q6 3 8 5q37 26 58 -8l90 -138q23 -33 -12 -61q-174 -139 -398 -139q-248 0 -383 159q-23 -24 -52.5 -47t-80 -50.5t-124 -44.5t-158.5 -17q-141 0 -219.5 76t-80.5 198zM412 295q0 -31 22 -51t64 -19q42 0 86.5 19.5t66 36t35.5 30.5q10 10 10 19v94 q0 16 -16 14q-18 -2 -79 -14t-73 -14q-56 -12 -86 -42.5t-30 -72.5zM1032 641l314 6q0 6 -1 16t-10 35t-24.5 44t-49 33t-79.5 11q-43 -3 -74.5 -19t-45.5 -36.5t-21.5 -41t-8.5 -34.5v-14z" />
<glyph unicode="&#xe7;" horiz-adv-x="995" d="M72 514q0 102 35.5 198t99 170.5t159.5 118.5t209 43q225 -2 340 -147q22 -28 0 -53l-118 -129q-9 -11 -26 -12.5t-32 8.5q-65 42 -109 52q-23 5 -46 5q-84 0 -144.5 -77t-60.5 -181q0 -116 56.5 -187t142.5 -71q98 0 192 86q36 31 64 0l102 -115q29 -32 8 -61 q-18 -24 -47.5 -50t-72.5 -54t-103 -47.5t-123 -22.5v-2q-63 -174 -98 -256q-20 -39 -58 -39l-159 4q-27 1 -35 25t6 49q9 20 160 231q-89 24 -156.5 77t-107 123.5t-59 149.5t-19.5 164z" />
<glyph unicode="&#xe8;" horiz-adv-x="1085" d="M74 541q4 100 38 190.5t95.5 162.5t157.5 112t213 36q83 -3 151.5 -27.5t113.5 -61t79 -87t52.5 -98t30.5 -102t15 -91.5t4 -73q-2 -26 -12 -38t-35 -13l-580 -9q0 -13 2.5 -30.5t15.5 -48t35 -54t65 -41.5t101 -18q17 0 33.5 1.5t29.5 3.5t27.5 7t24 7.5t23 9.5t19.5 10 t18.5 10.5t15.5 9.5t14.5 10t12.5 9q41 25 65 -13l90 -137q15 -27 -16 -55q-174 -139 -398 -139q-111 0 -200.5 33.5t-146 88.5t-93 128.5t-50.5 150t-11 156.5zM305 1337l21 160q5 28 24 37t47 -4q26 -13 216.5 -119.5t203.5 -114.5q26 -16 17 -57l-19 -70q-8 -32 -61 -18 q-383 117 -416 131q-38 17 -33 55zM403 641l314 6q0 6 -1 16t-10.5 35t-25 44t-49.5 33t-80 11q-43 -3 -74 -19t-45 -36.5t-21 -41t-7 -34.5z" />
<glyph unicode="&#xe9;" horiz-adv-x="1085" d="M74 541q4 100 38 190.5t95.5 162.5t157.5 112t213 36q83 -3 151.5 -27.5t113.5 -61t79 -87t52.5 -98t30.5 -102t15 -91.5t4 -73q-2 -26 -12 -38t-35 -13l-580 -9q0 -13 2.5 -30.5t15.5 -48t35 -54t65 -41.5t101 -18q17 0 33.5 1.5t29.5 3.5t27.5 7t24 7.5t23 9.5t19.5 10 t18.5 10.5t15.5 9.5t14.5 10t12.5 9q41 25 65 -13l90 -137q15 -27 -16 -55q-174 -139 -398 -139q-111 0 -200.5 33.5t-146 88.5t-93 128.5t-50.5 150t-11 156.5zM305 1239q-9 41 17 57q13 8 203.5 114.5t215.5 119.5q28 13 47.5 4t24.5 -37l21 -160q5 -38 -33 -55 q-33 -14 -416 -131q-53 -14 -61 18zM403 641l314 6q0 6 -1 16t-10.5 35t-25 44t-49.5 33t-80 11q-43 -3 -74 -19t-45 -36.5t-21 -41t-7 -34.5z" />
<glyph unicode="&#xea;" horiz-adv-x="1085" d="M74 541q4 100 38 190.5t95.5 162.5t157.5 112t213 36q83 -3 151.5 -27.5t113.5 -61t79 -87t52.5 -98t30.5 -102t15 -91.5t4 -73q-2 -26 -12 -38t-35 -13l-580 -9q0 -13 2.5 -30.5t15.5 -48t35 -54t65 -41.5t101 -18q17 0 33.5 1.5t29.5 3.5t27.5 7t24 7.5t23 9.5t19.5 10 t18.5 10.5t15.5 9.5t14.5 10t12.5 9q41 25 65 -13l90 -137q15 -27 -16 -55q-174 -139 -398 -139q-111 0 -200.5 33.5t-146 88.5t-93 128.5t-50.5 150t-11 156.5zM313 1158q-6 9 0 24l113 331q9 25 31 25h205q24 0 32 -22q51 -136 117 -334q5 -14 0 -23.5t-18 -9.5h-125 q-24 0 -33 12q-3 4 -14.5 31t-22.5 55.5t-22 56.5l-11 29q-5 13 -10 0q-1 -2 -32 -80t-36 -86q-3 -6 -13 -12t-19 -6h-121q-15 0 -21 9zM403 641l314 6q0 6 -1 16t-10.5 35t-25 44t-49.5 33t-80 11q-43 -3 -74 -19t-45 -36.5t-21 -41t-7 -34.5z" />
<glyph unicode="&#xeb;" horiz-adv-x="1085" d="M74 541q4 100 38 190.5t95.5 162.5t157.5 112t213 36q83 -3 151.5 -27.5t113.5 -61t79 -87t52.5 -98t30.5 -102t15 -91.5t4 -73q-2 -26 -12 -38t-35 -13l-580 -9q0 -13 2.5 -30.5t15.5 -48t35 -54t65 -41.5t101 -18q17 0 33.5 1.5t29.5 3.5t27.5 7t24 7.5t23 9.5t19.5 10 t18.5 10.5t15.5 9.5t14.5 10t12.5 9q41 25 65 -13l90 -137q15 -27 -16 -55q-174 -139 -398 -139q-111 0 -200.5 33.5t-146 88.5t-93 128.5t-50.5 150t-11 156.5zM184 1317q0 69 48 116.5t114 47.5q74 0 115 -38.5t47 -105.5q6 -83 -38 -129.5t-126 -48.5q-72 -2 -116 40.5 t-44 117.5zM403 641l314 6q0 6 -1 16t-10.5 35t-25 44t-49.5 33t-80 11q-43 -3 -74 -19t-45 -36.5t-21 -41t-7 -34.5zM598 1317q0 69 48 116.5t114 47.5q74 0 115 -38.5t47 -105.5q6 -83 -38 -129.5t-126 -48.5q-72 -2 -116 40.5t-44 117.5z" />
<glyph unicode="&#xec;" horiz-adv-x="591" d="M35 1337l20 160q5 28 24.5 37t47.5 -4q26 -13 216.5 -119.5t203.5 -114.5q25 -15 16 -57l-18 -70q-8 -32 -62 -18q-379 116 -415 131q-38 17 -33 55zM133 983q0 19 10.5 31t28.5 12h246q18 0 28.5 -12t10.5 -31l-2 -942q0 -19 -10 -30t-27 -11l-244 -2q-39 0 -39 41z" />
<glyph unicode="&#xed;" horiz-adv-x="591" d="M39 1239q-9 42 16 57q13 8 203.5 114.5t216.5 119.5q28 13 47.5 4t24.5 -37l20 -160q5 -39 -32 -55q-33 -14 -416 -131q-54 -14 -62 18zM133 983q0 19 10.5 31t28.5 12h246q18 0 28.5 -12t10.5 -31l-2 -942q0 -19 -10 -30t-27 -11l-244 -2q-39 0 -39 41z" />
<glyph unicode="&#xee;" horiz-adv-x="591" d="M47 1158q-6 9 0 24l113 331q9 25 30 25h205q25 0 33 -22q51 -136 117 -334q5 -14 -0.5 -23.5t-18.5 -9.5h-125q-23 0 -32 12q-3 4 -14.5 31t-22.5 55.5t-22 56.5l-11 29q-5 13 -10 0q-1 -2 -32 -80t-36 -86q-3 -6 -13.5 -12t-19.5 -6h-120q-15 0 -21 9zM133 983 q0 19 10.5 31t28.5 12h246q18 0 28.5 -12t10.5 -31l-2 -942q0 -19 -10 -30t-27 -11l-244 -2q-39 0 -39 41z" />
<glyph unicode="&#xef;" horiz-adv-x="591" d="M-70 1317q0 69 48 116.5t114 47.5q74 0 115 -38.5t47 -105.5q6 -83 -38 -129.5t-126 -48.5q-72 -2 -116 40.5t-44 117.5zM133 983q0 19 10.5 31t28.5 12h246q18 0 28.5 -12t10.5 -31l-2 -942q0 -19 -10 -30t-27 -11l-244 -2q-39 0 -39 41zM344 1317q0 69 48 116.5 t114 47.5q74 0 115 -38.5t47 -105.5q6 -83 -38 -129.5t-126 -48.5q-72 -2 -116 40.5t-44 117.5z" />
<glyph unicode="&#xf0;" horiz-adv-x="1247" d="M94 429q-19 179 72 314q108 161 328 185q36 4 73 4q126 0 240 -74q-9 94 -43 154l-66 -49q-17 -11 -34.5 -8t-26.5 20l-45 59q-10 18 -7 35.5t17 28.5l43 30q-51 23 -100 23q-88 0 -199 -51q-13 -6 -29.5 -1t-23.5 19l-109 205q-14 31 21 49q119 66 245 86t249 -11.5 t219 -115.5l75 58q18 9 35.5 5t28.5 -18l39 -59q10 -15 7.5 -33.5t-16.5 -28.5l-63 -49q133 -209 133 -542q0 -148 -29 -265.5t-79.5 -195.5t-123 -129.5t-155.5 -74t-180 -22.5q-221 0 -362 152q-115 124 -134 300zM424.5 418.5q9.5 -43.5 30 -79t61 -58.5t92.5 -23 q48 0 87 22.5t60 58t31.5 79t2 87t-28 79t-59.5 58t-93 22.5q-50 0 -90 -22.5t-61 -58t-31.5 -78.5t-1 -86.5z" />
<glyph unicode="&#xf1;" horiz-adv-x="1161" d="M119 979q0 19 12 32t31 13l233 2q19 0 32.5 -12t14.5 -31v-96q5 6 14 16.5t39.5 37t64 46.5t86 36.5t106.5 16.5q137 0 214 -68.5t83 -203.5v-725q0 -20 -11 -31.5t-30 -11.5l-232 -2q-43 0 -43 43v549q0 78 -23.5 119.5t-84.5 40.5q-71 0 -126 -44.5t-55 -113.5v-549 q0 -45 -45 -45h-231q-19 0 -31 11.5t-12 31.5zM175.5 1224.5q-5.5 18.5 2.5 55.5q27 100 98.5 153.5t169.5 53.5q55 0 102.5 -22.5t83.5 -45t64 -22.5q58 0 80 57q17 51 62 37l112 -37q31 -10 38 -25t1 -47q-22 -99 -95.5 -158t-186.5 -59q-55 0 -101 21t-78.5 42t-54.5 21 q-54 0 -80 -45q-13 -26 -24 -34.5t-33 -4.5q-79 19 -131 35q-24 6 -29.5 24.5z" />
<glyph unicode="&#xf2;" horiz-adv-x="1107" d="M72 520q0 100 28 189.5t84 163.5t150.5 119t216.5 48q120 3 214.5 -41t151.5 -120t86.5 -169.5t30.5 -197.5q1 -105 -30.5 -199t-91 -167.5t-153.5 -116.5t-210 -43q-95 0 -175 30t-135 81t-93 120t-56 145.5t-18 157.5zM303 1337l21 160q5 28 24 37t47 -4 q26 -13 216.5 -119.5t203.5 -114.5q25 -15 16 -57l-18 -70q-8 -32 -61 -18q-383 117 -416 131q-38 17 -33 55zM370 456q9 -56 29.5 -102t59.5 -75t88 -29q59 0 103 38t64.5 95.5t21.5 125t-18 125t-61.5 96.5t-101.5 40q-52 1 -92.5 -27.5t-61.5 -74t-30.5 -101t-0.5 -111.5 z" />
<glyph unicode="&#xf3;" horiz-adv-x="1107" d="M72 520q0 100 28 189.5t84 163.5t150.5 119t216.5 48q120 3 214.5 -41t151.5 -120t86.5 -169.5t30.5 -197.5q1 -105 -30.5 -199t-91 -167.5t-153.5 -116.5t-210 -43q-95 0 -175 30t-135 81t-93 120t-56 145.5t-18 157.5zM334 1239q-9 42 16 57q13 8 203.5 114.5 t216.5 119.5q28 13 47.5 4t24.5 -37l20 -160q5 -38 -33 -55q-36 -15 -415 -131q-54 -14 -62 18zM370 456q9 -56 29.5 -102t59.5 -75t88 -29q59 0 103 38t64.5 95.5t21.5 125t-18 125t-61.5 96.5t-101.5 40q-52 1 -92.5 -27.5t-61.5 -74t-30.5 -101t-0.5 -111.5z" />
<glyph unicode="&#xf4;" horiz-adv-x="1107" d="M72 520q0 100 28 189.5t84 163.5t150.5 119t216.5 48q120 3 214.5 -41t151.5 -120t86.5 -169.5t30.5 -197.5q1 -105 -30.5 -199t-91 -167.5t-153.5 -116.5t-210 -43q-95 0 -175 30t-135 81t-93 120t-56 145.5t-18 157.5zM305 1158q-6 9 0 24l113 331q9 25 31 25h204 q25 0 33 -22q51 -136 117 -334q5 -14 -0.5 -23.5t-18.5 -9.5h-125q-23 0 -32 12q-3 4 -14.5 31t-22.5 55.5t-22 56.5l-11 29q-5 13 -10 0q-1 -2 -32 -80t-36 -86q-3 -6 -13.5 -12t-19.5 -6h-120q-15 0 -21 9zM370 456q9 -56 29.5 -102t59.5 -75t88 -29q59 0 103 38 t64.5 95.5t21.5 125t-18 125t-61.5 96.5t-101.5 40q-52 1 -92.5 -27.5t-61.5 -74t-30.5 -101t-0.5 -111.5z" />
<glyph unicode="&#xf5;" horiz-adv-x="1107" d="M72 520q0 100 28 189.5t84 163.5t150.5 119t216.5 48q120 3 214.5 -41t151.5 -120t86.5 -169.5t30.5 -197.5q1 -105 -30.5 -199t-91 -167.5t-153.5 -116.5t-210 -43q-95 0 -175 30t-135 81t-93 120t-56 145.5t-18 157.5zM161 1224.5q-5 18.5 3 55.5q27 100 98.5 153.5 t169.5 53.5q55 0 102.5 -22.5t83.5 -45t64 -22.5q58 0 80 57q17 50 61 37l113 -37q31 -10 38 -25t1 -47q-22 -99 -96 -158t-187 -59q-43 0 -81.5 13t-61.5 29t-47.5 29t-42.5 13q-54 0 -80 -45q-13 -26 -24 -34.5t-33 -4.5q-85 21 -132 35q-24 6 -29 24.5zM370 456 q9 -56 29.5 -102t59.5 -75t88 -29q59 0 103 38t64.5 95.5t21.5 125t-18 125t-61.5 96.5t-101.5 40q-52 1 -92.5 -27.5t-61.5 -74t-30.5 -101t-0.5 -111.5z" />
<glyph unicode="&#xf6;" horiz-adv-x="1107" d="M72 520q0 100 28 189.5t84 163.5t150.5 119t216.5 48q120 3 214.5 -41t151.5 -120t86.5 -169.5t30.5 -197.5q1 -105 -30.5 -199t-91 -167.5t-153.5 -116.5t-210 -43q-95 0 -175 30t-135 81t-93 120t-56 145.5t-18 157.5zM180 1317q0 69 48 116.5t114 47.5q74 0 115 -38.5 t47 -105.5q6 -83 -38 -129.5t-126 -48.5q-72 -2 -116 40.5t-44 117.5zM370 456q9 -56 29.5 -102t59.5 -75t88 -29q59 0 103 38t64.5 95.5t21.5 125t-18 125t-61.5 96.5t-101.5 40q-52 1 -92.5 -27.5t-61.5 -74t-30.5 -101t-0.5 -111.5zM594 1317q0 69 48 116.5t114 47.5 q74 0 115 -38.5t47 -105.5q6 -83 -38 -129.5t-126 -48.5q-72 -2 -116 40.5t-44 117.5z" />
<glyph unicode="&#xf8;" horiz-adv-x="1107" d="M72 520q0 100 28 189.5t84 163.5t150.5 119t216.5 48q100 3 190 -30l35 59q15 27 45 27l158 -2q17 0 23.5 -12t-1.5 -27l-96 -162q62 -73 94.5 -173t34.5 -208q1 -105 -30.5 -199t-91 -167.5t-153.5 -116.5t-210 -43q-93 0 -172 28l-33 -57q-14 -23 -45 -23l-152 5 q-13 0 -18.5 11.5t2.5 26.5l84 144q-71 74 -107 178t-36 221zM367 499.5q1 -51.5 14 -98.5l215 363q-21 6 -41 6q-47 1 -84.5 -22.5t-59.5 -62t-33.5 -86.5t-10.5 -99.5zM520 252q8 -2 27 -2q55 0 97 33t62.5 84t28 112.5t-7.5 118.5z" />
<glyph unicode="&#xf9;" horiz-adv-x="1120" d="M110 838l1 141q0 19 13 32t32 13h217q43 0 43 -43q2 -514 2 -571q0 -154 102 -154q68 -1 130.5 47.5t62.5 93.5l2 582q0 19 12 32t33 13h215q19 0 31 -11t12 -30v-944q0 -39 -43 -39l-211 -2q-37 0 -37 43v82q-4 -7 -12 -17.5t-37.5 -36.5t-64.5 -45t-93 -31.5t-123 -6.5 q-73 7 -129.5 41t-87.5 82.5t-47 98.5t-18 99q-3 55 -4 223t-1 308zM317 1337l21 160q5 28 24.5 37t47.5 -4q25 -13 215.5 -119.5t203.5 -114.5q26 -16 17 -57l-19 -70q-8 -32 -61 -18q-383 117 -416 131q-38 17 -33 55z" />
<glyph unicode="&#xfa;" horiz-adv-x="1120" d="M110 838l1 141q0 19 13 32t32 13h217q43 0 43 -43q2 -514 2 -571q0 -154 102 -154q68 -1 130.5 47.5t62.5 93.5l2 582q0 19 12 32t33 13h215q19 0 31 -11t12 -30v-944q0 -39 -43 -39l-211 -2q-37 0 -37 43v82q-4 -7 -12 -17.5t-37.5 -36.5t-64.5 -45t-93 -31.5t-123 -6.5 q-73 7 -129.5 41t-87.5 82.5t-47 98.5t-18 99q-3 55 -4 223t-1 308zM289 1239q-9 42 16 57q13 8 203.5 114.5t216.5 119.5q28 13 47.5 4t24.5 -37l20 -160q5 -38 -33 -55q-36 -15 -415 -131q-54 -14 -62 18z" />
<glyph unicode="&#xfb;" horiz-adv-x="1120" d="M110 838l1 141q0 19 13 32t32 13h217q43 0 43 -43q2 -514 2 -571q0 -154 102 -154q68 -1 130.5 47.5t62.5 93.5l2 582q0 19 12 32t33 13h215q19 0 31 -11t12 -30v-944q0 -39 -43 -39l-211 -2q-37 0 -37 43v82q-4 -7 -12 -17.5t-37.5 -36.5t-64.5 -45t-93 -31.5t-123 -6.5 q-73 7 -129.5 41t-87.5 82.5t-47 98.5t-18 99q-3 55 -4 223t-1 308zM307 1158q-6 9 0 24l113 331q9 25 31 25h204q25 0 33 -22q51 -136 117 -334q5 -14 -0.5 -23.5t-18.5 -9.5h-124q-24 0 -33 12q-3 4 -14.5 31t-22.5 55.5t-22 56.5l-11 29q-5 13 -10 0q-1 -2 -32 -80 t-36 -86q-3 -6 -13 -12t-19 -6h-121q-15 0 -21 9z" />
<glyph unicode="&#xfc;" horiz-adv-x="1120" d="M110 838l1 141q0 19 13 32t32 13h217q43 0 43 -43q2 -514 2 -571q0 -154 102 -154q68 -1 130.5 47.5t62.5 93.5l2 582q0 19 12 32t33 13h215q19 0 31 -11t12 -30v-944q0 -39 -43 -39l-211 -2q-37 0 -37 43v82q-4 -7 -12 -17.5t-37.5 -36.5t-64.5 -45t-93 -31.5t-123 -6.5 q-73 7 -129.5 41t-87.5 82.5t-47 98.5t-18 99q-3 55 -4 223t-1 308zM188 1317q0 69 48 116.5t114 47.5q74 0 115 -38.5t47 -105.5q6 -83 -38 -129.5t-126 -48.5q-72 -2 -116 40.5t-44 117.5zM602 1317q0 69 48 116.5t114 47.5q74 0 115 -38.5t47 -105.5q6 -83 -38 -129.5 t-126 -48.5q-72 -2 -116 40.5t-44 117.5z" />
<glyph unicode="&#xfd;" horiz-adv-x="1126" d="M38 1014q7 12 28 12h296q20 0 30.5 -8.5t19.5 -32.5l170 -438l20 -51l141 489q12 41 50 41h264q19 0 28 -13t2 -34q-147 -418 -225 -629l-256 -696q-9 -25 -19.5 -34t-31.5 -9h-266q-21 -1 -30 11.5t-1 31.5l180 473q10 25 0 43l-399 815q-8 17 -1 29zM307 1239 q-13 39 17 57q13 8 203.5 114.5t215.5 119.5q28 13 47.5 4t24.5 -37l21 -160q5 -38 -33 -55q-19 -9 -416 -131q-53 -14 -61 18z" />
<glyph unicode="&#xfe;" horiz-adv-x="1142" d="M117 1493q0 21 10.5 33t28.5 12l262 2q43 0 43 -39v-590q3 5 8.5 13t26.5 28t46 35.5t66 28t86 12.5q72 0 137.5 -29.5t119.5 -87t86 -153.5t32 -219q0 -136 -31 -240.5t-85 -167.5t-121.5 -96t-147.5 -37q-49 -3 -90 3.5t-65.5 17.5t-41.5 22.5t-23 20.5l-7 8 q2 -42 2 -52v-307q0 -19 -13 -32t-32 -13l-226 2q-19 0 -32 13t-13 32zM459 639l6 -303q0 -32 41.5 -60.5t97.5 -21.5q57 8 95 50t52.5 96t14.5 116q0 47 -8 88.5t-24.5 76.5t-44.5 55t-66 20q-79 0 -134 -51q-13 -11 -21.5 -31t-8.5 -35z" />
<glyph unicode="&#xff;" horiz-adv-x="1126" d="M38 1014.5q7 12.5 28 11.5h296q36 0 50 -41l170 -438l20 -51l141 491q12 41 50 41h264q19 0 28 -13.5t2 -33.5q-147 -420 -225 -631l-256 -696q-11 -37 -51 -43h-266q-21 -1 -30 11.5t-1 31.5l180 473q10 25 0 43l-399 815q-8 17 -1 29.5zM219 1317q0 69 47.5 116.5 t114.5 47.5q74 0 115 -38.5t47 -105.5q6 -83 -38 -129.5t-126 -48.5q-72 -2 -116 40.5t-44 117.5zM633 1317q0 69 47.5 116.5t114.5 47.5q74 0 114.5 -38.5t46.5 -105.5q6 -83 -37.5 -129.5t-125.5 -48.5q-72 -2 -116 40.5t-44 117.5z" />
<glyph unicode="&#x152;" horiz-adv-x="1730" d="M96 711q1 211 85.5 374t245.5 256t376 93h809q33 0 33 -33l-3 -219q0 -14 -8.5 -23.5t-23.5 -9.5l-494 -2q-13 0 -17.5 -5t-4.5 -18v-237q0 -19 24 -19h408q30 0 30 -32l-2 -213q0 -14 -9 -23.5t-25 -9.5h-402q-26 0 -26 -25v-266q0 -12 5 -15t17 -3h500q13 0 22 -10.5 t9 -24.5l-3 -217q0 -31 -30 -31h-809q-341 1 -521.5 186.5t-185.5 526.5zM410 702q-1 -191 93.5 -298.5t262.5 -118.5l2 852q-168 -9 -262.5 -120.5t-95.5 -314.5z" />
<glyph unicode="&#x153;" horiz-adv-x="1746" d="M74 512q-1 100 29 191.5t87.5 166.5t152.5 121t214 49q195 6 326 -129v-2q138 141 356 133q83 -3 151.5 -27.5t113.5 -61t79.5 -86.5t53 -98t30.5 -102t15 -91.5t4 -73.5q-2 -26 -12.5 -38t-35.5 -13l-579 -9q0 -7 1 -19t10.5 -42.5t26.5 -55t53.5 -47t86.5 -26.5 q60 -5 116.5 9t79 27t58.5 37q6 3 8 5q37 26 60 -11l90 -137q21 -32 -15 -59q-174 -139 -397 -139q-227 0 -358 131q-130 -123 -330 -129h-10q-97 -1 -177.5 32t-132.5 86t-87.5 123.5t-51 141.5t-16.5 143zM372 456q9 -55 29 -101t59 -74.5t89 -28.5q51 0 91.5 28.5 t62 74.5t32 101t1.5 110t-29 101t-59.5 74.5t-90.5 28.5t-91.5 -28.5t-61.5 -74.5t-31 -101t-1 -110zM1065 641l313 6q0 6 -1 16t-10.5 35t-25 44t-49.5 33t-80 11q-43 -3 -74 -19t-44.5 -36.5t-21 -41t-7.5 -34.5v-14z" />
<glyph unicode="&#x178;" horiz-adv-x="1261" d="M19.5 1423q6.5 11 23.5 11h299q18 0 27.5 -6.5t17.5 -24.5l227 -535l19 -41l18 41l230 539q12 27 39 27h297q19 0 25 -13.5t-5 -36.5l-440 -841v-506q0 -22 -8 -30.5t-27 -8.5h-268q-31 0 -31 39v506l-443 852q-7 17 -0.5 28zM254 1718q0 68 48 116t114 48q74 0 115 -38 t47 -105q6 -83 -38 -129.5t-126 -48.5q-72 -2 -116 40t-44 117zM668 1718q0 69 47.5 116.5t113.5 47.5q74 0 115 -38t47 -105q6 -83 -38 -129.5t-126 -48.5q-72 -2 -115.5 40t-43.5 117z" />
<glyph unicode="&#x2c6;" horiz-adv-x="686" d="M94 1158q-6 9 0 24l113 331q9 25 31 25h204q25 0 33 -22q51 -136 117 -334q5 -14 -0.5 -23.5t-18.5 -9.5h-124q-24 0 -33 12q-3 4 -14.5 31t-22.5 55.5t-22 56.5l-11 29q-5 13 -10 0q-1 -2 -32 -80t-36 -86q-9 -18 -32 -18h-121q-15 0 -21 9z" />
<glyph unicode="&#x2dc;" horiz-adv-x="1001" d="M93.5 1224.5q-5.5 18.5 2.5 55.5q27 100 99 153.5t170 53.5q55 0 102.5 -22.5t83 -45t63.5 -22.5q58 0 80 57q17 51 62 37l112 -37q30 -10 37.5 -25t1.5 -47q-22 -99 -95.5 -158t-186.5 -59q-55 0 -101 21t-78.5 42t-54.5 21q-54 0 -80 -45q-13 -26 -24 -34.5t-33 -4.5 q-79 19 -131 35q-24 6 -29.5 24.5z" />
<glyph unicode="&#x2000;" horiz-adv-x="976" />
<glyph unicode="&#x2001;" horiz-adv-x="1953" />
<glyph unicode="&#x2002;" horiz-adv-x="976" />
<glyph unicode="&#x2003;" horiz-adv-x="1953" />
<glyph unicode="&#x2004;" horiz-adv-x="651" />
<glyph unicode="&#x2005;" horiz-adv-x="488" />
<glyph unicode="&#x2006;" horiz-adv-x="325" />
<glyph unicode="&#x2007;" horiz-adv-x="325" />
<glyph unicode="&#x2008;" horiz-adv-x="244" />
<glyph unicode="&#x2009;" horiz-adv-x="390" />
<glyph unicode="&#x200a;" horiz-adv-x="108" />
<glyph unicode="&#x2010;" horiz-adv-x="1019" d="M92 475v209q0 43 39 43h756q19 0 30 -12t11 -31v-203q0 -45 -41 -45l-752 -2q-19 0 -31 11t-12 30z" />
<glyph unicode="&#x2011;" horiz-adv-x="1019" d="M92 475v209q0 43 39 43h756q19 0 30 -12t11 -31v-203q0 -45 -41 -45l-752 -2q-19 0 -31 11t-12 30z" />
<glyph unicode="&#x2012;" horiz-adv-x="1019" d="M92 475v209q0 43 39 43h756q19 0 30 -12t11 -31v-203q0 -45 -41 -45l-752 -2q-19 0 -31 11t-12 30z" />
<glyph unicode="&#x2013;" horiz-adv-x="1126" d="M92 475v209q0 43 39 43h862q19 0 30 -12t11 -31v-203q0 -45 -41 -45l-858 -2q-19 0 -31 11t-12 30z" />
<glyph unicode="&#x2014;" horiz-adv-x="1243" d="M92 475v209q0 43 39 43h979q19 0 30 -12t11 -31v-203q0 -45 -41 -45l-975 -2q-19 0 -31 11t-12 30z" />
<glyph unicode="&#x2018;" horiz-adv-x="561" d="M90 1094v12q0 180 96 275.5t285 68.5q24 -3 27 -23q6 -83 -6 -127q-4 -15 -25 -12q-126 19 -178 -51h16q91 1 139 -51t48 -127q0 -93 -60 -148t-139 -53q-92 1 -147.5 67t-55.5 169z" />
<glyph unicode="&#x2019;" horiz-adv-x="561" d="M63 881q-6 80 7 127q4 15 24 12q126 -19 178 51h-16q-91 -1 -138.5 51t-47.5 127q0 93 59.5 148t138.5 53q92 -1 147.5 -67t55.5 -169v-12q0 -180 -96 -275.5t-285 -68.5q-24 3 -27 23z" />
<glyph unicode="&#x201a;" horiz-adv-x="505" d="M27 -199q-6 83 6 127q5 16 24 13q73 -11 124 4t75 47h-16q-90 -1 -137.5 49t-49.5 125q-1 84 46.5 141.5t121.5 65.5q100 10 167 -50t67 -180v-6q0 -197 -114.5 -289.5t-287.5 -68.5q-23 3 -26 22z" />
<glyph unicode="&#x201c;" horiz-adv-x="1040" d="M90 1094v12q0 180 96 275.5t285 68.5q24 -3 27 -23q6 -83 -6 -127q-4 -15 -25 -12q-126 19 -178 -51h16q91 1 139 -51t48 -127q0 -93 -60 -148t-139 -53q-92 1 -147.5 67t-55.5 169zM569 1094v12q0 180 96 275.5t285 68.5q24 -3 27 -23q6 -83 -6 -127q-4 -15 -25 -12 q-126 19 -178 -51h16q91 1 139 -51t48 -127q0 -93 -60 -148t-139 -53q-92 1 -147.5 67t-55.5 169z" />
<glyph unicode="&#x201d;" horiz-adv-x="1040" d="M63 881q-6 80 7 127q4 15 24 12q126 -19 178 51h-16q-91 -1 -138.5 51t-47.5 127q0 93 59.5 148t138.5 53q92 -1 147.5 -67t55.5 -169v-12q0 -180 -96 -275.5t-285 -68.5q-24 3 -27 23zM543 881q-6 83 6 127q4 15 24 12q127 -19 179 51h-17q-91 -1 -138.5 51t-47.5 127 q0 93 60 148t139 53q92 -1 147 -66.5t55 -169.5v-12q0 -180 -96 -275.5t-285 -68.5q-23 3 -26 23z" />
<glyph unicode="&#x201e;" horiz-adv-x="985" d="M27 -199q-6 83 6 127q5 16 24 13q73 -11 124 4t75 47h-16q-90 -1 -137.5 49t-49.5 125q-1 84 46.5 141.5t121.5 65.5q100 10 167 -50t67 -180v-6q0 -197 -114.5 -289.5t-287.5 -68.5q-23 3 -26 22zM506 -199q-6 83 6 127q5 16 25 13q73 -11 123.5 4t74.5 47h-16 q-90 -1 -137.5 49t-49.5 125q-1 84 46.5 141.5t121.5 65.5q100 10 167 -50t67 -180v-6q0 -197 -114.5 -289.5t-287.5 -68.5q-23 3 -26 22z" />
<glyph unicode="&#x2022;" horiz-adv-x="634" d="M78.5 748q3.5 39 19.5 75t39 64.5t58 47t75 21.5q132 13 200.5 -46t78.5 -162q3 -47 -6 -90t-33.5 -84t-76 -65.5t-124.5 -25.5q-51 -1 -93.5 13.5t-69 40.5t-45 60.5t-22.5 73t-0.5 77.5z" />
<glyph unicode="&#x2026;" horiz-adv-x="1726" d="M90 176q0 83 57.5 140t137.5 57q89 0 137.5 -45.5t56.5 -126.5q7 -98 -46 -154.5t-150 -58.5q-87 -2 -140 48t-53 140zM668 176q0 83 57 140t137 57q90 0 138.5 -45.5t56.5 -126.5q7 -98 -46.5 -154.5t-150.5 -58.5q-87 -2 -139.5 48t-52.5 140zM1243 176q0 83 57.5 140 t137.5 57q89 0 137.5 -45.5t56.5 -126.5q7 -98 -46 -154.5t-150 -58.5q-87 -2 -140 48t-53 140z" />
<glyph unicode="&#x202f;" horiz-adv-x="390" />
<glyph unicode="&#x2039;" horiz-adv-x="714" d="M86 518q-23 34 0 66l297 393q24 30 61 10l172 -92q34 -20 9 -57l-211 -287l211 -287q23 -38 -11 -57l-172 -94q-17 -9 -33.5 -5.5t-25.5 17.5z" />
<glyph unicode="&#x203a;" horiz-adv-x="714" d="M90 264l211 287l-211 287q-26 37 8 57l172 92q38 20 62 -10l297 -393q23 -32 0 -66l-297 -393q-9 -14 -26 -17.5t-34 5.5l-172 94q-33 19 -10 57z" />
<glyph unicode="&#x205f;" horiz-adv-x="488" />
<glyph unicode="&#x20ac;" horiz-adv-x="1247" d="M47 483v121q0 41 39 41h100q-2 20 -2 64q0 43 2 63h-100q-39 0 -39 39v119q0 41 39 41h131q64 226 224 348.5t356 122.5q66 0 125.5 -13.5t99.5 -32t74.5 -44t52 -44.5t31.5 -38q19 -29 0 -53l-131 -160q-9 -11 -25.5 -10.5t-28.5 12.5q-31 31 -87 56.5t-107 25.5 q-78 0 -140 -43.5t-100 -126.5h195q37 0 37 -39v-121q0 -19 -8 -27t-27 -10l-252 -2q-6 -68 0 -127h246q18 0 29.5 -11.5t11.5 -29.5v-117q0 -35 -37 -38l-193 -3q84 -163 254 -163q53 0 104.5 23t84.5 52q14 14 28 13t31 -19l121 -135q24 -30 10 -53q-16 -26 -46 -54.5 t-77.5 -60t-117.5 -52t-148 -20.5q-143 0 -260.5 50.5t-205 157.5t-126.5 261h-127q-41 0 -41 37z" />
<glyph unicode="&#x2122;" horiz-adv-x="985" d="M61 1343v70q0 9 6 15t15 6h291q20 0 20 -21v-72q0 -18 -20 -18h-80v-279q0 -20 -21 -20h-86q-20 0 -20 20v279h-84q-21 0 -21 20zM434 1413q0 21 19 21h106q21 0 27 -15l61 -151h2l62 151q6 15 22 15h101q20 0 20 -21v-369q0 -20 -16 -20h-82q-19 0 -19 18v226l-47 -146 q-6 -16 -24 -16h-39q-21 0 -27 18l-47 146l4 -226q0 -20 -20 -20h-82q-19 0 -19 20z" />
<glyph unicode="&#x25fc;" horiz-adv-x="1024" d="M0 0v1024h1024v-1024h-1024z" />
</font>
</defs>
</svg>
